<?xml version="1.0" ?><svg viewBox="0 0 1000 1000" xmlns="http://www.w3.org/2000/svg"><path d="m931.68 763.13c-5.34 13.19-18 23.62-30.09 32.15-31.59 22.32-65.29 42.25-102.08 54.18s-77 15.51-114.24 5.16a75 75 0 0 1 -11.35-4.14c-4.29 15.14-10.81 38.22-12.87 45.63h313.95s-10-83.73-43.32-132.98z" fill="#18c4ff"/><path d="m929.64 762.57c-3.19 7.72-8.86 14.17-15 19.73-6.53 6-13.81 11-21.08 16a467.6 467.6 0 0 1 -47.56 29.06c-33.33 17.49-69.86 29.8-107.72 31.12a180 180 0 0 1 -32.15-1.65c-10.54-1.53-21.38-3.73-31.11-8.18a2.15 2.15 0 0 0 -3.11 1.27c-4.3 15.2-8.64 30.4-12.87 45.63a2.14 2.14 0 0 0 2 2.68h301.22c4.06 0 8.14.08 12.21 0h.53a2.14 2.14 0 0 0 2.12-2.12c-1.28-10.64-3.25-21.23-5.42-31.72-4.66-22.42-10.76-44.67-19.37-65.9a197 197 0 0 0 -18.83-36.43c-1.51-2.24-5.18-.13-3.65 2.14 13.52 20 22.25 43.12 29 66.21a452.93 452.93 0 0 1 12.48 55.33c.43 2.65.84 5.32 1.21 8 0 .27.21 1.54.1.71l.12.92.09.76 2.15-2.13h-301.2c-4 0-8.17-.23-12.21 0h-.54l2 2.68c4.23-15.23 8.57-30.43 12.87-45.64l-3.11 1.27c8.91 4.07 18.53 6.34 28.15 8a181.62 181.62 0 0 0 29.18 2.53 217.69 217.69 0 0 0 58.3-7.84 288.41 288.41 0 0 0 53.66-20.9 443.65 443.65 0 0 0 49.43-29.3c14.39-9.72 30.5-19.94 39.4-35.36a48.39 48.39 0 0 0 2.79-5.75 2.13 2.13 0 0 0 -1.48-2.6 2.16 2.16 0 0 0 -2.6 1.48z" fill="#18c4ff"/><path d="m647.06 715.07a75 75 0 0 1 16.33 66 108 108 0 0 1 -4.19 14.66c-2 5.6-4.71 10.91-6.72 16.51s-3 11.54-1.47 17.36a27.89 27.89 0 0 0 7 12.17c7.07 7.4 17 11.89 26.72 14.62a171.58 171.58 0 0 0 39.79 6.07c27.23 1 54.54-3.85 80.24-12.7 25-8.59 48.57-20.82 70.92-34.8 10.92-6.83 21.76-14 32.06-21.7 8.83-6.64 17.49-14.19 23.09-23.87a40.18 40.18 0 0 0 5.24-15.31 42.4 42.4 0 0 0 -2.39-18.7 124.39 124.39 0 0 0 -8.44-18.18q-4.66-8.68-9.75-17.13c-13.66-22.77-29.2-44.33-44.43-66.05-14.94-21.32-29.45-42.91-42-65.78-10.62-19.51-21.06-40.24-38.06-55.24a80.91 80.91 0 0 0 -13.15-9.44c-2-1.15-3.82 1.95-1.81 3.11 19.34 11.1 31.5 30.61 42.06 49.6 5.73 10.32 11.2 20.77 17.25 30.91 6.64 11.12 13.74 22 21 32.67 14.59 21.43 30 42.33 44.11 64.06 7.06 10.83 13.82 21.88 20 33.24 6 11.1 13 23.37 11.53 36.48-1.17 10.76-8 19.86-15.59 27.13-8.53 8.17-18.52 14.77-28.29 21.34-21.52 14.46-44.09 27.62-68 37.6-24.46 10.2-50.38 17.13-76.9 18.74a181.49 181.49 0 0 1 -39.86-1.79c-11.38-1.82-23.14-4.41-33.25-10.16-8.23-4.68-16-12.1-16.35-22.16-.24-6.43 2.44-12.51 4.88-18.31a138.06 138.06 0 0 0 5.4-14.86c6.06-20.77 5.21-42.93-5.19-62.18a91.57 91.57 0 0 0 -10.45-15.21c-.78-.93-2.08.4-1.33 1.32z"/><path d="m299.2 337.36a116.47 116.47 0 0 0 2.5-26.07 109.47 109.47 0 0 0 -1-12.8 68 68 0 0 0 -2.42-11.83c-1-3.25-2.65-6.91-5.31-9.19-2-1.7-6.33-2.52-6.81 1.1-.46 3.44 4 4.46 6.56 4.48a30.48 30.48 0 0 0 10.7-1.82 31.14 31.14 0 0 0 10.61-6.4c1.38-1.28 2.8-2.78 3.12-4.71a4.19 4.19 0 0 0 -2.17-4.54 1.45 1.45 0 0 0 -2.08.85c-1.36 3.5 1.59 7.37 4.05 9.62a22.91 22.91 0 0 0 8.71 4.79 42.69 42.69 0 0 0 10.34 1.73c2.6.14 8.69.79 7.91-3.55a4.31 4.31 0 0 0 -2.86-3.17 4.64 4.64 0 0 0 -4.52 1.39 14.54 14.54 0 0 0 -2.81 4.57q-1.35 2.9-2.48 5.9a81.37 81.37 0 0 0 -5 25 74 74 0 0 0 4 28.35c.63 1.71 3.3 1.05 2.78-.77a89.22 89.22 0 0 1 -3.73-21.13 78.5 78.5 0 0 1 1.91-20.95 80 80 0 0 1 3.1-10.28q.85-2.23 1.84-4.41a13.14 13.14 0 0 1 2.43-4.18 2.12 2.12 0 0 1 1.42-.73c.34 0 1 .46 1 .84s-.27.3-.78.34a22.61 22.61 0 0 1 -2.47 0 45.56 45.56 0 0 1 -8.48-.91 24.49 24.49 0 0 1 -8.82-3.59c-2.2-1.53-6-5.08-4.86-8.07l-2.08.84c2.91 1.33-1.94 5.24-3.05 6.12a28 28 0 0 1 -7.83 4.37 28.63 28.63 0 0 1 -8.53 1.71 10.13 10.13 0 0 1 -3.84-.29c-.41-.15-2-.86-1.11-1.25s2.27 1.08 2.71 1.58a17.63 17.63 0 0 1 2.52 3.87 35.8 35.8 0 0 1 2.66 8.33 115.84 115.84 0 0 1 .67 44.49c-.17.94 1.25 1.35 1.45.4z" fill="#18c4ff"/><path d="m313.76 269.88c-1.12 17.92-1.84 35.87-2.05 53.83q-.09 7.73-.07 15.46a1.17 1.17 0 0 0 2.34 0q-.25-26.93.7-53.85.29-7.72.66-15.44c.06-1-1.52-1-1.58 0z" fill="#18c4ff"/><path d="m755.74 495.27a69.84 69.84 0 0 1 55.3-27c10.52.11 21.68 2.51 31.14-2.1 4.29-2.08 8.43-5.62 13.14-4.89 4.08.64 6.92 4.32 9 7.89a100.81 100.81 0 0 1 8.68 20.92c2.17 7.06 3.92 14.84 1.16 21.69-2.69 6.67-9.29 11.13-16.21 13.13s-14.24 1.92-21.44 2-14.56.25-21.3 2.79c-3 1.12-6.28 2.68-9.15 1.32a10.59 10.59 0 0 1 -3.62-3.55c-9.44-12.73-22.16-23.63-37.44-27.83"/><path d="m756.36 495.89a69.19 69.19 0 0 1 44.93-25.79 71.79 71.79 0 0 1 13.67-.44c4.87.26 9.75.77 14.65.62a32.53 32.53 0 0 0 13.82-3.18c3.72-1.89 8-5.48 12.4-4.22 4.2 1.18 6.6 5.85 8.46 9.42a96 96 0 0 1 5.89 14.32c2.92 8.88 6.47 19.81.38 28.17-5.6 7.69-15.73 9.81-24.65 10.25-10.31.51-21-.7-30.94 2.94-2.18.8-4.72 2.23-7.12 2s-3.72-2.61-5.05-4.35a95.41 95.41 0 0 0 -9-10.19 70.6 70.6 0 0 0 -22-14.92 57.19 57.19 0 0 0 -6.38-2.2 1.41 1.41 0 0 0 -.75 2.72 61.9 61.9 0 0 1 24.39 13.8 88.38 88.38 0 0 1 9.94 10.43c1.46 1.79 2.72 3.81 4.34 5.46a7.6 7.6 0 0 0 6.43 2.23c2.69-.28 5.08-1.52 7.63-2.32a42.14 42.14 0 0 1 8.08-1.65c5.39-.58 10.82-.43 16.23-.5 10-.14 20.48-1.32 28.28-8.15a20.8 20.8 0 0 0 6.87-11.9c.91-5.13.07-10.37-1.26-15.35a117.88 117.88 0 0 0 -5.33-15.41c-1.94-4.6-4.12-9.37-7.32-13.25-2.95-3.58-7.15-5.59-11.79-4.33s-8.42 4.75-13.08 6.16c-9.8 3-20.29.32-30.31.78a71.12 71.12 0 0 0 -48.5 22.68q-2.24 2.46-4.24 5.11c-.59.78.76 1.84 1.37 1.06z"/><path d="m681.41 529.29c-32.15 9.47-61.54 26.2-93.36 36.61a197 197 0 0 1 -24.28 6.37c-7.92 1.5-16.53 3.07-24.58 1.69a23 23 0 0 1 -11.19-5.06 44.15 44.15 0 0 1 -7.83-9.24c-4.84-7.13-9.31-14.53-13.6-22-17.36-30.28-31.05-62.43-46.25-93.8-3.8-7.85-7.7-15.65-11.77-23.37-3.6-6.82-7.09-13.9-12-19.93-4.63-5.72-10.74-9.78-18.25-10.15-4.36-.22-8.76.61-13 1.41s-8.28 1.72-12.36 2.82a166.8 166.8 0 0 0 -46.6 20.57c-5.93 3.81-11.3 8.43-12.06 15.84-.65 6.27 1.47 12.43 1.36 18.69-.05 2.82-.69 5.75-2.72 7.84-1.13 1.16.65 2.94 1.78 1.77 9.45-9.71-2.52-24.36 5.18-34.68 2.42-3.23 5.95-5.47 9.32-7.58s7.07-4.25 10.72-6.17a164.2 164.2 0 0 1 48.66-16.5c4.39-.75 9-1.41 13.41-.33a20.47 20.47 0 0 1 9.06 5.13c5.5 5.17 9 12.15 12.54 18.7 4.15 7.67 8.1 15.45 11.95 23.27 15.28 31.1 28.84 63.08 45.77 93.35 4.24 7.6 8.7 15.08 13.43 22.38 4.18 6.45 8.65 13.46 15.62 17.19s15.35 3.6 23.08 2.67a168.91 168.91 0 0 0 23.88-4.72c32.39-8.77 61.84-25.36 93.09-37.22 3.77-1.43 7.54-2.84 11.35-4.15.88-.3.52-1.67-.38-1.4z"/><path d="m394.24 395.44c-3.1-7.82-2.3-16.23-2.76-24.45s-2-16.62-5.62-24.09a38.13 38.13 0 0 0 -13.86-15.9 30 30 0 0 0 -11.3-4.21c-3.2-.45-6.85-.07-8.87 2.77-2.27 3.18-1.12 7.47 1.12 10.31a26.59 26.59 0 0 0 4.57 4.23l6 4.69v-1.95a29.15 29.15 0 0 0 -2.5 37c.94 1.28 3.11.07 2.17-1.27a26.88 26.88 0 0 1 2.28-33.79 1.39 1.39 0 0 0 0-1.95c-2.93-2.3-6.06-4.48-8.79-7-2.11-2-4.32-5.12-2.9-8.12s5.53-2.44 8.12-1.83a29 29 0 0 1 10 4.41c12.09 8.37 16.13 23.74 17.19 37.61.62 8.06 0 16.69 3.73 24.13.4.79 1.79.23 1.45-.61z"/><path d="m365.59 393.77v.26a.6.6 0 0 0 .08.35.71.71 0 0 0 .18.3.8.8 0 0 0 .3.19.85.85 0 0 0 .35.08h.24a.93.93 0 0 0 .41-.23l.14-.19a.91.91 0 0 0 .13-.46v-.26a.73.73 0 0 0 -.08-.36.92.92 0 0 0 -.5-.5.73.73 0 0 0 -.36-.08h-.25a1 1 0 0 0 -.41.25l-.15.19a1.06 1.06 0 0 0 -.13.47z"/><rect height="171.12" rx="9.13" width="150.41" x="25" y="319.82"/><path d="m166.28 488.82h-126.86c-1.75 0-3.5 0-5.25 0a7.1 7.1 0 0 1 -7-6.32c-.05-.53 0-1.09 0-1.62v-136.77c0-5.05-.09-10.1 0-15.15a7.09 7.09 0 0 1 7-7h132.08a7.08 7.08 0 0 1 7 6.84c.12 4.85 0 9.72 0 14.57v137.28 1.14a7.09 7.09 0 0 1 -7 7c-2.72.05-2.73 4.28 0 4.23a11.35 11.35 0 0 0 11.11-9.58 17.6 17.6 0 0 0 .14-2.51v-148.42a35 35 0 0 0 -.18-5.51 11.36 11.36 0 0 0 -11.07-9.3h-131c-.6 0-1.2 0-1.8 0a11.36 11.36 0 0 0 -10.51 10.2 46.65 46.65 0 0 0 -.06 4.73v148.37a15.62 15.62 0 0 0 .24 3 11.36 11.36 0 0 0 11 9c5.66.1 11.33 0 17 0h115.16c2.72.05 2.72-4.18 0-4.18z"/><rect fill="#18c4ff" height="171.12" rx="9.13" width="150.41" x="49.28" y="319.82"/><path d="m190.56 488.82h-126.86c-1.75 0-3.5 0-5.25 0a7.1 7.1 0 0 1 -7-6.32c-.05-.53 0-1.09 0-1.62v-136.77c0-5.05-.09-10.1 0-15.15a7.09 7.09 0 0 1 7-7h132.08a7.08 7.08 0 0 1 7 6.84c.12 4.85 0 9.72 0 14.57v137.28 1.14a7.09 7.09 0 0 1 -7 7c-2.72.05-2.73 4.28 0 4.23a11.36 11.36 0 0 0 11.11-9.58 17.6 17.6 0 0 0 .14-2.51v-148.42a35 35 0 0 0 -.18-5.51 11.36 11.36 0 0 0 -11.07-9.3h-131c-.6 0-1.2 0-1.8 0a11.36 11.36 0 0 0 -10.51 10.2 46.65 46.65 0 0 0 -.06 4.73v148.37a15.62 15.62 0 0 0 .24 3 11.36 11.36 0 0 0 11 9c5.66.1 11.33 0 17 0h115.16c2.72.05 2.73-4.18 0-4.18z" fill="#18c4ff"/><path d="m102.44 355.96h6.3v98.83h-6.3z"/><path d="m108.73 452.67h-6.29l2.11 2.12v-94.79a37.83 37.83 0 0 0 0-3.84v-.16l-2.11 2.12h6.29l-2.11-2.12v86.66c0 4-.16 8 0 12v.17c0 2.72 4.23 2.73 4.23 0v-86.7c0-4 .16-8 0-12v-.13a2.15 2.15 0 0 0 -2.12-2.12h-6.29a2.15 2.15 0 0 0 -2.12 2.12v86.66c0 4-.16 8 0 12v.17a2.15 2.15 0 0 0 2.12 2.12h6.29c2.73-.04 2.73-4.28 0-4.28z"/><g fill="#fff"><path d="m111.88 355.96h30.71v98.83h-30.71z"/><path d="m142.6 452.67h-30.72l2.12 2.12v-94.79a37.83 37.83 0 0 0 0-3.84v-.16l-2.12 2.12h30.72l-2.12-2.12v86.66c0 4-.16 8 0 12v.17c0 2.72 4.23 2.73 4.23 0v-86.7c0-4 .16-8 0-12v-.13a2.15 2.15 0 0 0 -2.11-2.12h-30.72a2.15 2.15 0 0 0 -2.11 2.12v86.66c0 4-.16 8 0 12v.17a2.15 2.15 0 0 0 2.11 2.12h30.72c2.72-.04 2.73-4.28 0-4.28z"/><path d="m142.6 384.36a22.32 22.32 0 0 1 0 44.63"/><path d="m142.6 386.48a20.2 20.2 0 1 1 0 40.39c-2.73 0-2.73 4.25 0 4.23a24.43 24.43 0 0 0 0-48.85c-2.73 0-2.73 4.21 0 4.23z"/></g><path d="m107.23 431.84c7.92.36 15.88.31 23.82.38s15.88.19 23.82 0a1.18 1.18 0 0 0 0-2.36c-7.94-.15-15.89 0-23.82 0s-15.9 0-23.82.39a.75.75 0 0 0 0 1.5z" fill="#18c4ff"/><path d="m144.7 400.34h30.71v12.68h-30.71z" fill="#fff"/><path d="m175.41 410.9h-30.71l2.12 2.11v-12.67l-2.12 2.11h30.71l-2.12-2.11v12.66c0 2.73 4.24 2.73 4.24 0v-12.66a2.15 2.15 0 0 0 -2.12-2.12h-30.71a2.15 2.15 0 0 0 -2.12 2.12v12.66a2.15 2.15 0 0 0 2.12 2.12h30.71c2.72.01 2.73-4.22 0-4.22z" fill="#fff"/><path d="m113.99 400.34h30.71v12.68h-30.71z"/><path d="m144.7 410.9h-30.7l2.1 2.1v-12.66l-2.1 2.11h30.7l-2.12-2.11v12.66c0 2.73 4.24 2.73 4.24 0v-12.66a2.15 2.15 0 0 0 -2.12-2.12h-30.7a2.15 2.15 0 0 0 -2.12 2.12v12.66a2.15 2.15 0 0 0 2.12 2.12h30.7c2.72.01 2.73-4.22 0-4.22z"/><path d="m108.73 384.36a22.32 22.32 0 1 1 0 44.63"/><path d="m108.73 386.48a20.2 20.2 0 1 1 0 40.39c-2.72 0-2.72 4.25 0 4.23a24.43 24.43 0 1 0 0-48.85c-2.72 0-2.72 4.21 0 4.23z"/><path d="m132.1 416.28c7.93.37 15.88.32 23.82.39s15.89.19 23.82 0a1.18 1.18 0 0 0 0-2.36c-7.93-.14-15.88 0-23.82 0s-15.89 0-23.82.38a.75.75 0 0 0 0 1.5z" fill="#18c4ff"/><path d="m724.88 323.67c-2.63-9.18-5-18.52-5.38-28.07s1.47-19.39 6.68-27.39a26.51 26.51 0 0 1 12.31-10.54c5.12-2 11.24-1.72 15.79 1.35s7.1 9.15 5.39 14.37a26.88 26.88 0 0 1 27.42-11.93c5 1 10 3.8 12 8.46 3.11 7.21-2.07 15.56-8.66 19.82a26.45 26.45 0 0 1 35.66 22.12 17.17 17.17 0 0 1 -1.19 8.81c-2.8 6.1-9.79 8.87-16.13 11.07 5.36-.21 9.81 4.09 12.78 8.55 3.23 4.84 5.61 11.06 3.33 16.41-1.58 3.7-5.14 6.25-8.93 7.55s-7.9 1.51-11.95 1.75c2-.25 3.26 2 3.88 3.82a49 49 0 0 1 1.89 7.71c.58 3.6.6 7.7-1.88 10.37s-6.77 2.94-10.41 2.23c-4.93-1-10.11-4-10.92-9 3.88 3 3.55 9.54.18 13.14s-8.76 4.64-13.66 4.07c-6.27-.73-13.09-5.3-12.57-11.59a3.16 3.16 0 0 1 -1.38 3.94 6.86 6.86 0 0 1 -4.47.65c-6.28-.77-11.83-4.87-15.38-10.1s-5.32-11.5-6.21-17.76"/><path d="m725.66 323.45c-3.64-14-7-28.86-3.18-43.2 3.08-11.41 13.14-25.27 26.76-21.68 6.14 1.62 10.81 8 8.79 14.37-.6 1.89 2.1 2.9 3.12 1.31a25.16 25.16 0 0 1 20.93-11.36c7.66 0 17.66 4.73 15.55 13.93-1.06 4.61-4.41 8.54-8.3 11.08-1.9 1.25-.74 4.75 1.63 3.88a24.57 24.57 0 0 1 26.52 6.22 25 25 0 0 1 6 11.82c.9 4.43.54 9.36-2.67 12.8s-8.17 5.28-12.66 6.84c-2.39.83-2.14 4.64.62 4.59 6.36-.12 11.17 6.87 13.34 12.1 1.21 2.92 1.86 6.3.72 9.34-1.07 2.83-3.62 4.81-6.3 6-3.88 1.77-8.28 1.87-12.46 2.13v4.55c1.35-.1 1.88 2.52 2.17 3.48a45.65 45.65 0 0 1 1.53 6.74c.43 3.18.41 7.32-2.87 9-2.94 1.49-6.83.8-9.78-.32s-5.76-3.27-6.38-6.58l-3.66 2.14c2.41 2 2.71 5.34 1.47 8.09-1.49 3.32-5.18 5-8.63 5.44-5.82.73-15.67-2-15.21-9.46l-4 1.08c.12.28-.35.82-.52 1a3.1 3.1 0 0 1 -2 .52 14.16 14.16 0 0 1 -4.94-1 20.54 20.54 0 0 1 -7.82-5.31 28.6 28.6 0 0 1 -5.49-8.79 48.07 48.07 0 0 1 -3.09-11.2 1.81 1.81 0 0 0 -2.21-1.25 1.83 1.83 0 0 0 -1.26 2.21 53.55 53.55 0 0 0 2.35 10.76 33.6 33.6 0 0 0 5.35 9.68c4 5 10.46 9.19 17.1 9.15a7 7 0 0 0 5.46-2.25 5.17 5.17 0 0 0 .74-5.62c-.93-2.09-3.84-.82-4 1.07-.5 7.8 7.5 12.83 14.36 13.7 7.41.95 16.44-1.94 18.43-10 .95-3.84.1-8.28-3.06-10.88a2.21 2.21 0 0 0 -3.67 2.13c1.38 7.5 10.5 11.35 17.4 10.9 3.93-.26 7.67-2.05 9.35-5.79 1.75-3.92 1.11-8.38.24-12.44-.83-3.84-2.21-10.94-7.43-10.7-2.92.14-2.94 4.66 0 4.55 8.17-.29 18.51-1.53 22.6-9.83 3.87-7.88-.67-17.21-6.09-23.16-3-3.35-7.15-5.93-11.81-5.83l.62 4.58c4.86-1.69 9.84-3.58 13.71-7.08 4.37-4 5.92-9.68 5.24-15.42a28.71 28.71 0 0 0 -38.47-23.8l1.63 3.88c8.34-5.5 14.85-17.42 7.07-26.17-6.82-7.67-19.17-7.59-27.89-3.71a28 28 0 0 0 -12.45 10.84l3.12 1.31c1.9-6.34-1.26-13.35-6.86-16.68-6.06-3.61-13.83-2.91-19.77.56-13 7.6-17.29 24.51-16.43 38.6.57 9.44 3 18.58 5.83 27.56a.81.81 0 0 0 1.57-.43z"/><path d="m702.76 335.71c-4.25-1.44-5.28-7.47-3.08-11.38s6.43-6.15 10.46-8.13c3.75-1.85 8.1-3.68 12-2.13 2.16.87 3.81 2.66 5.36 4.39 12.79 14.23 25.9 29.39 30.28 48a14.11 14.11 0 0 1 .48 5c-.71 5.53-6.63 8.61-11.86 10.56-5.56 2.07-11.42 3.93-17.33 3.31s-11.87-4.33-13.32-10.13" fill="#18c4ff"/><path d="m703 334.88c-3.74-1.49-4.17-6.74-2.44-9.87 2.37-4.3 7.54-6.56 11.83-8.44 2.43-1.06 5.26-2.08 7.94-1.54s4.43 2.57 6.13 4.47c3.53 3.93 7 7.89 10.36 12 6.56 8 12.66 16.66 16.53 26.32a63.05 63.05 0 0 1 2.49 7.48c.64 2.42 1.39 5.06.46 7.51-1.49 3.9-6 6-9.68 7.42-5.73 2.22-12.31 4.52-18.54 3.34-4.76-.9-9.45-3.88-10.76-8.78a1.62 1.62 0 0 0 -3.12.86c1.38 5.13 5.69 8.72 10.59 10.39 6 2.05 12.62.73 18.49-1.22 4.88-1.62 10.5-3.51 14-7.55a10.71 10.71 0 0 0 2.68-6.72c.08-3-1-6.22-1.89-9.09-3.65-11.39-10.38-21.41-17.85-30.63-3.81-4.69-7.83-9.23-11.9-13.69-1.93-2.12-4.08-4.18-7-4.8-3.09-.65-6.18.24-9 1.45-5.22 2.26-11.8 5.45-14 11.08-1.68 4.25-.4 10.08 4.28 11.69 1.07.36 1.47-1.26.46-1.66z" fill="#18c4ff"/><path d="m629.54 343.09c-4.82 4.11-7 10.3-8.29 16.35s-1.61 12.25-2.19 18.37c-.57 5.95-1 12-2.42 17.78a31 31 0 0 1 -3.12 8.17 20.11 20.11 0 0 1 -5.52 5.92c-2.1 1.61-4.51 3.4-5.11 6.14a9.12 9.12 0 0 0 3.06 8.39 12.7 12.7 0 0 1 2.69 2.53c.91 1.49.84 3.63.8 5.32-.12 4-1.15 8-1.52 12-1.21 13.21.64 27.93 12.34 36.12 11.19 7.83 26.19 5.81 38.68 3 1.65-.38 3.27-.84 4.89-1.35a1.14 1.14 0 0 0 -.61-2.19c-12.2 2.17-26.08 5.72-37.86-.09a24.68 24.68 0 0 1 -12.25-13.84c-2.19-6.08-2.47-12.64-2.05-19 .24-3.7.93-7.3 1.42-11 .45-3.34 1-7.78-1-10.79-1.48-2.32-4.18-3.29-5.06-6.05-.82-2.57.78-4.13 2.68-5.63a30.37 30.37 0 0 0 6.06-5.59 26.76 26.76 0 0 0 3.78-7.53c1.91-5.63 2.59-11.68 3-17.58.43-5.65.75-11.32 1.3-17 .6-6.06 1.56-12.35 4.72-17.67a21.48 21.48 0 0 1 2.7-3.59.85.85 0 0 0 -1.2-1.2z"/><path d="m632.93 395.77a4.11 4.11 0 0 0 -2 4.24 2.24 2.24 0 0 0 1.69 1.77 2.43 2.43 0 0 0 2.65-1.62 3 3 0 0 0 .08-1.69 4.29 4.29 0 0 0 -.3-.85 2.39 2.39 0 0 0 -.52-.81 1.26 1.26 0 0 0 -1.49-.2 1.27 1.27 0 0 0 -.57 1.4c.13.38.37.69.53 1.06l-.12-.3a3.38 3.38 0 0 1 .18.62l-.05-.32a1.6 1.6 0 0 1 0 .49v-.31c0 .07 0 .15-.05.23s.14-.25 0-.06l-.09.15.07-.09-.08.08c-.09.08-.06.06.09-.07 0 0-.28.14-.06.05s-.05 0-.08 0h.16-.09c.2 0 .25 0 .14 0h-.08c-.09 0 .3.13.07 0s.19.19.07.06-.17-.2 0 0 0 0 0-.05a.83.83 0 0 0 -.07-.13c.16.25.06.15 0 0a1.21 1.21 0 0 1 0-.18s0-.07 0-.11v.18a.55.55 0 0 1 0-.22c0-.1 0-.21 0-.31 0 .36 0 .09 0 0s0-.12 0-.18.09-.28.14-.42-.09.19 0 0 .05-.11.08-.17.15-.26.23-.38l.08-.1-.05.06c.05-.06.09-.12.14-.17s.21-.21.32-.31a.86.86 0 0 0 .07-1.14.87.87 0 0 0 -1.12-.23z"/><path d="m630.08 384.41a14.19 14.19 0 0 0 3.51.36c1 .06 2 .17 3 .33a24.93 24.93 0 0 1 3.19.72c.52.16 1 .34 1.55.53a4.41 4.41 0 0 0 2 .55 1.75 1.75 0 0 0 1.42-.81 1.62 1.62 0 0 0 0-1.66c-.87-1.17-2.46-1.54-3.81-1.92a25.63 25.63 0 0 0 -3.77-.74 17.53 17.53 0 0 0 -3.62-.07 7.54 7.54 0 0 0 -3.73 1 1 1 0 0 0 .22 1.72z"/><path d="m630 405a18.66 18.66 0 0 1 6.32-.31.91.91 0 0 0 .9-.9.92.92 0 0 0 -.9-.91 19.68 19.68 0 0 0 -6.7.74.72.72 0 0 0 .38 1.38z"/><path d="m625 440.15a44.44 44.44 0 0 1 12.14-2.78 1.38 1.38 0 0 1 .83.09 1.22 1.22 0 0 1 .52.66c.77 1.85-.08 3.95-1.09 5.68a16.77 16.77 0 0 1 -4.53 5.33c-1.09.78-2.54 1.37-3.73.77s-1.64-2.35-1.74-3.81a49.6 49.6 0 0 1 -.07-5.72"/><path d="m625.23 440.93a53.25 53.25 0 0 1 7.79-1.78c1.29-.18 2.58-.35 3.88-.45a1.46 1.46 0 0 0 .36 0c.34-.12 0 .09.06-.1-.07.14-.08-.37 0 .09a2.41 2.41 0 0 0 .08.25 3.42 3.42 0 0 1 0 1.62 11.08 11.08 0 0 1 -1.53 3.22 17.4 17.4 0 0 1 -2 2.61 8.39 8.39 0 0 1 -2.61 2.05 2.06 2.06 0 0 1 -1.08.24.9.9 0 0 1 -.68-.47 6.75 6.75 0 0 1 -.61-3.13c-.09-1.56-.1-3.12-.05-4.68.07-1.88-2.81-1.86-2.91 0s-.09 3.47 0 5.2a8.93 8.93 0 0 0 .9 4.07 4 4 0 0 0 3.76 2 7.54 7.54 0 0 0 4.23-2.14 18.19 18.19 0 0 0 5-7.44 6 6 0 0 0 -.17-4.75c-.94-1.67-2.8-1.22-4.39-1a37 37 0 0 0 -10.58 3.17c-.83.38-.25 1.73.62 1.47z"/><g fill="#18c4ff"><path d="m629.38 446.7a15.61 15.61 0 0 1 1.32-1.49 4.83 4.83 0 0 1 1.39-1 8.17 8.17 0 0 1 1-.22 2.28 2.28 0 0 0 1.1-.64l.39-.38a2.41 2.41 0 0 1 .31-.24l.18-.12a1 1 0 0 0 .16-.08l.17-.06s.32-.07.15-.05a1 1 0 0 0 0-2 3.76 3.76 0 0 0 -2.43 1.11 5.66 5.66 0 0 0 -.42.43l-.16.18c-.14.14-.06 0 0 0-.37.17-.78.26-1.15.44a8.76 8.76 0 0 0 -3.11 3.2c-.46.67.61 1.52 1.14.88z"/><path d="m648.65 412.61.38.07a1 1 0 0 0 .42 0 .78.78 0 0 0 .35-.21l.13-.16a.79.79 0 0 0 .1-.4.66.66 0 0 0 -.06-.31.7.7 0 0 0 -.17-.25.78.78 0 0 0 -.35-.21 1 1 0 0 0 -.42 0l-.38.07-.17.07a.64.64 0 0 0 -.21.19.42.42 0 0 0 -.09.16.55.55 0 0 0 -.06.28v.19l.08.18a.52.52 0 0 0 .19.2.47.47 0 0 0 .24.13z"/><path d="m654.36 411.17a.84.84 0 0 0 0-1.67.84.84 0 0 0 0 1.67z"/><path d="m654 419.35a.75.75 0 0 0 0-1.5.75.75 0 0 0 0 1.5z"/></g><path d="m679.17 422c5.89-.18 12-2.67 15.2-7.61s2.6-12.44-2.2-15.86-13-.47-13.58 5.4a120.46 120.46 0 0 1 -6-21.33c-2.1-13.12-.4-26.51 1.3-39.69-3.56 3.36-7.29 6.83-11.94 8.35s-10.54.5-13.15-3.65.39-11 5.28-10.65c-5.3 5.72-13.12 8.21-20.58 10.49a11.57 11.57 0 0 1 -5.37.74c-1.8-.32-3.53-1.8-3.47-3.63s2.63-3.18 3.86-1.83a27 27 0 0 1 -19.38 21.27c-4.92 1.27-11.06.62-13.72-3.71-1.95-3.18-1.32-7.45.65-10.62s5.07-5.47 8.16-7.57c-4.92 2.53-11.34-2-12-7.48s3.11-10.75 7.88-13.55 10.39-3.67 15.86-4.48c-3.15.63-6.39 1.25-9.54.67s-6.25-2.67-7.05-5.77c-1.1-4.25 2.33-8.34 6-10.79a34.49 34.49 0 0 1 31.76-3.28c-3.34 1.36-6.27-3.84-4.39-6.92s6-3.89 9.58-3.89c16.3 0 30.89 10 42.73 21.21 1.07-3.49 5.77-4.74 9.12-3.29s5.53 4.72 7.18 8a56 56 0 0 1 5.31 16.08c.08-3.09 5.11-3.83 6.93-1.33s.89 6.14-1 8.58c3.7 1.9 7.35 4.41 9.18 8.15s1.21 9-2.32 11.16a55.35 55.35 0 0 1 46.27 32.05c1.13 2.53 2.07 5.37 1.34 8s-3.8 4.85-6.31 3.67c3 4.75 6.79 9 9.36 14s3.8 11.14 1.37 16.21-9.49 8-14 4.67a13 13 0 0 1 -17.72 16.87 25.87 25.87 0 0 1 -13.54 7.06 8.33 8.33 0 0 1 -5.3-.4c-1.6-.83-2.67-2.89-1.86-4.51-.37 3.86-5.51 5.67-9.1 4.18s-5.85-5-7.89-8.28l-14-22.58c-.68-1.09-1.38-2.33-1.08-3.58a5.21 5.21 0 0 1 2-2.5"/><path d="m679.17 422.81c8.24 0 17.51-4.49 18.71-13.47a13.28 13.28 0 0 0 -3.28-11 10.39 10.39 0 0 0 -10-2.67 9.72 9.72 0 0 0 -7.68 8.22l3.34-.45c-1.69-4.75-3.41-9.48-4.65-14.38a77.06 77.06 0 0 1 -2.31-15.17c-.53-10.39.78-20.74 2.11-31 .17-1.33-1.65-1.8-2.47-1-5 4.74-11.81 10.87-19.28 7.84-2.7-1.1-4.66-3.5-4.25-6.51.33-2.44 2.07-4.92 4.74-4.79l-1-2.49c-4.05 4.29-9.48 6.69-15 8.54-1.39.47-2.79.9-4.19 1.33a14.75 14.75 0 0 1 -4.84 1c-1.1 0-2.57-.62-2.85-1.82-.15-.59.67-1.85 1.32-1.25l-.37-1.41a25.66 25.66 0 0 1 -13.73 18.58 18.29 18.29 0 0 1 -11.2 2.09c-4-.72-6.93-3.55-6.62-7.82.41-5.43 5.14-9 9.28-11.84a1.43 1.43 0 0 0 -1.44-2.46c-2.91 1.41-6.28-.23-8.16-2.57-2.28-2.83-2.13-6.64-.51-9.75 4.08-7.89 13.6-9.38 21.53-10.54l-.78-2.84c-4.05.8-8.74 1.72-12.38-.82-3.4-2.38-2.93-6.38-.5-9.29s6.08-4.94 9.61-6.3a33.63 33.63 0 0 1 11.51-2.23 33.16 33.16 0 0 1 12.87 2.39v-3c-1.31.47-2.26-.55-2.72-1.73a3.4 3.4 0 0 1 1-4c3-2.63 8.1-2.17 11.76-1.77 9.1 1 17.58 5.22 25 10.43a109.64 109.64 0 0 1 12.15 10.11 1.6 1.6 0 0 0 2.64-.7c.72-2.09 3.2-2.87 5.22-2.69 2.7.25 4.78 2.37 6.2 4.5 3.73 5.58 5.83 12.45 6.94 19 .35 2.11 3.37 1.41 3.52-.48.1-1.33 2.55-1.17 3.32-.61 2.21 1.63.43 5.31-.79 6.92a1.87 1.87 0 0 0 .67 2.54c3.35 1.76 7 4 8.56 7.66 1.18 2.7.91 6.63-1.74 8.37a2 2 0 0 0 1 3.63 54.14 54.14 0 0 1 43.57 28.67c1.22 2.4 2.66 5.17 2.46 7.94-.16 2.09-2 4.34-4.25 3.42-1.48-.61-2.84 1.41-2 2.65 4.58 7.13 11.74 14 11.82 23.07 0 3.58-1.26 7.08-4.37 9.06-2.54 1.62-5.71 2.11-8.29.32-1.21-.84-3.24.58-2.63 2a11.26 11.26 0 0 1 -15.1 14.85 1.84 1.84 0 0 0 -2.16.28 24.4 24.4 0 0 1 -9.78 5.9 14.11 14.11 0 0 1 -5.6.87c-1.48-.17-3.07-1.25-2.39-2.9l-3.41-.46c-.38 3-4.74 3.54-6.93 2.63-3.76-1.55-5.93-5.67-8-8.9-2.8-4.35-5.58-8.7-8.31-13.09l-4.15-6.69c-.6-1-1.58-2.13-1.73-3.3s.9-1.88 1.68-2.54c1.21-1-.54-2.76-1.75-1.74-1.47 1.24-2.71 2.68-2.34 4.74s2 4.14 3.17 6c2.63 4.25 5.31 8.48 7.85 12.78 2.29 3.86 4.4 8 7.2 11.5 2.19 2.74 5.26 5 8.92 5 3.86-.06 7.35-2.37 7.87-6.34.22-1.67-2.58-2.42-3.23-.87a5.28 5.28 0 0 0 1.73 6.39c2.22 1.71 5.2 1.52 7.8 1a27.73 27.73 0 0 0 13.92-7.43l-2.16.28a14.79 14.79 0 0 0 20.35-18.89l-2.63 2c5.27 3.64 12.59.78 15.85-4.21 4.38-6.72 1.57-15.59-2.27-21.82-2.41-3.91-5.35-7.46-7.82-11.33l-2 2.65a6.27 6.27 0 0 0 6.87-1.93c2-2.29 2.33-5.34 1.67-8.25a31.63 31.63 0 0 0 -3.28-7.83 53.42 53.42 0 0 0 -4.13-6.48 57.73 57.73 0 0 0 -24.75-19.11 54.75 54.75 0 0 0 -17.26-3.85l1 3.62c3.91-2.62 5.12-7.76 3.68-12.12-1.65-5-6.14-8.18-10.59-10.47l.67 2.54c2.51-3.4 3.63-9.79-.93-12.13-3.34-1.72-8.11-.15-8.4 3.94l3.53-.48a58 58 0 0 0 -3.63-12.31c-1.47-3.49-3.17-7.07-5.84-9.81a10.6 10.6 0 0 0 -8.67-3.58 7.65 7.65 0 0 0 -6.73 5l2.64-.7c-8-7.53-16.92-14.39-27.23-18.41a46.1 46.1 0 0 0 -15.4-3.24c-4.4-.13-10.31.61-12.41 5.15-1.82 3.93 1.55 10.43 6.4 8.7a1.57 1.57 0 0 0 0-3 36 36 0 0 0 -27.13.36c-4.15 1.75-8.32 4.25-10.89 8.05s-2.46 8.62 1 11.7c4.46 3.91 10.46 3 15.81 2 1.88-.37 1-3.11-.78-2.84-7.71 1.15-16.22 2.64-21.37 9.1-4.31 5.38-5 13.22.89 17.75a9.28 9.28 0 0 0 9.94 1.33l-1.44-2.46c-3.55 2.42-7.27 5.15-9.23 9.1-1.82 3.66-2.15 8.29.39 11.7 4.65 6.28 14.15 4.69 20.18 1.64a28.94 28.94 0 0 0 14.36-17.09c.51-1.65 1.53-4-.34-5.1a3.88 3.88 0 0 0 -4.52.87 4 4 0 0 0 -.41 5 6.23 6.23 0 0 0 4.91 2.71c2.56.17 5.15-.89 7.55-1.65s4.58-1.48 6.8-2.4a33.39 33.39 0 0 0 11.95-7.7 1.48 1.48 0 0 0 -1-2.49c-6-.27-9.25 7.29-6.88 12.22 3 6.23 11.48 6.65 17 4.2 4.11-1.82 7.45-4.94 10.68-8l-2.47-1a233.48 233.48 0 0 0 -2.3 24.48 85 85 0 0 0 2.71 23.92c1.16 4.41 2.53 8.77 4.05 13.07a1.71 1.71 0 0 0 3.34-.45c.62-5.31 8.44-6.54 11.79-3.26a9.86 9.86 0 0 1 2.58 8 12.33 12.33 0 0 1 -4.46 8.2 19.14 19.14 0 0 1 -11 4.26.86.86 0 0 0 0 1.72z"/><path d="m686.72 406.09a6.74 6.74 0 0 0 -1.26.63 11.93 11.93 0 0 0 -1.13.89 6.44 6.44 0 0 0 -1.67 2.07 2.69 2.69 0 0 0 -.22 1.79 1.86 1.86 0 0 0 1.25 1.34 1.45 1.45 0 0 0 1.81-1 1.35 1.35 0 0 0 -.14-1.09 1.31 1.31 0 0 0 -1.1-.61 1.07 1.07 0 0 0 -1 .78 1.12 1.12 0 0 0 .49 1.21c-.29-.57-.43-.74-.39-.5 0 .09 0 0 0-.18a.8.8 0 0 1 .11-.37.5.5 0 0 1 .41-.27.44.44 0 0 1 .45-.1l.13.06c0 .05.2.25.1.09s0 .15 0 0 0 .24 0 0a.37.37 0 0 1 0-.11c0-.09 0 0 0 .09 0-.09.06-.27.1-.37s-.06.11 0 0l.09-.18a6.54 6.54 0 0 1 .45-.71l.12-.16c.11-.15-.06.07 0 0l.26-.31c.19-.22.38-.42.59-.62s.4-.35.6-.52l.33-.29.15-.13.1-.07a.77.77 0 0 0 .31-1 .75.75 0 0 0 -.9-.44z"/><g fill="#18c4ff"><path d="m680.35 416c-6.42.74-10.92 6.29-12.8 12.13a16.29 16.29 0 0 0 0 11.08 17.63 17.63 0 0 0 6 7.51c5.62 4.21 13.67 5.88 20.24 3.07a19 19 0 0 0 11.21-15.27c.8-7.12-2.89-16.5-10.08-19.08-1.39-.5-2 1.3-1.3 2.23a45.82 45.82 0 0 1 5.09 6.76 17.13 17.13 0 0 1 2.14 7.48 15.34 15.34 0 0 1 -6.71 13.15c-5 3.38-11.33 2.87-16.49.1-4.92-2.64-8.38-7.28-7.74-13.05.68-6 4.34-13.18 10.67-14.65.78-.18.63-1.53-.2-1.43z"/><path d="m688.48 448.31.37-.19.08.32a2.8 2.8 0 0 1 .16 1c0 .49-.09 2.84.58 2.69l-1.43-1.13a120.2 120.2 0 0 0 1.08 13.13l.82-1.08c-.14 0-.85-.55-1-.63a2.05 2.05 0 0 0 -1.61-.1 2.14 2.14 0 0 0 -1.14 2.65 5.76 5.76 0 0 0 2.7 2.75c1 .59 2.52 1.49 3.61.7s1.34-2.44 1.63-3.56.9-2.86-.3-3.56-2.38.38-3.13 1.12a6 6 0 0 0 -1.17 1.62 8.59 8.59 0 0 0 -.37.88 3.17 3.17 0 0 0 -.12.44c-.17.41 0 .38.56-.07-1.75.07-1.76 2.81 0 2.73 1.2 0 1.76-.87 2-1.94a4.44 4.44 0 0 1 .53-1.38 3.81 3.81 0 0 1 .57-.69c.21-.2.76-.36.15-.45l-.74-.57c-.18-.31 0-.17-.13.16s-.11.59-.17.89c-.1.47-.23.94-.37 1.4a6.74 6.74 0 0 0 -.3.86c-.11.67 0-.1.18.07a9.37 9.37 0 0 0 -1.46-.7 7.3 7.3 0 0 1 -1.17-.83c-.11-.1-.4-.55-.48-.59l-.2.15.21.12a2.61 2.61 0 0 0 2 .72c.54-.07 1.19-.46 1.12-1.11-.52-4.37-.78-8.74-1-13.13a1.15 1.15 0 0 0 -1.43-1.09 1.48 1.48 0 0 0 0 2.85c2 .46 2.26-2 2.1-3.36s-.69-3.42-2.52-3.28a1.87 1.87 0 0 0 -1.41 2.91.71.71 0 0 0 1.23-.72z"/><path d="m636.25 386.93c-6-.71-13 1.62-15.81 7.41-1.56 3.25-1.69 7.15-1.26 10.68a15.47 15.47 0 0 0 21.6 13 18.6 18.6 0 0 0 11.22-15.27 14.8 14.8 0 0 0 -3.07-10.92 12.33 12.33 0 0 0 -9.27-4.56c-1 0-1.32 1.68-.25 1.84a11.57 11.57 0 0 1 9.59 11.76 15.42 15.42 0 0 1 -8 13.13 12.91 12.91 0 0 1 -13.94-.91c-4.52-3.41-5.66-10.34-4.43-15.61a10.59 10.59 0 0 1 5.07-7.11 15.76 15.76 0 0 1 8.55-1.83c1 .06 1-1.49 0-1.61z"/><path d="m678.78 397.46c-.85.47-2.12.08-3 0l-3.43-.32c-2.37-.21-4.74-.38-7.11-.56-4.66-.37-9.32-.69-14-1-1.64-.12-1.65 2.47 0 2.55q7.47.4 15 .76c2.45.11 4.9.23 7.36.3 1.78.05 4.4.63 6-.47a.72.72 0 0 0 -.72-1.24z"/><path d="m620.48 402.07a3.57 3.57 0 0 0 -.67-3.12 5.35 5.35 0 0 0 -2.92-1.95 5.41 5.41 0 0 0 -3.76.19 2.78 2.78 0 0 0 -1.32 1.3 2.56 2.56 0 0 0 -.24 1.15 2.26 2.26 0 0 0 .58 1.35 1.3 1.3 0 0 0 1.56.2 1.35 1.35 0 0 0 .6-1.46c0-.12 0-.12 0 0s0 .12 0 0v-.09c0 .21 0 .26 0 .15s-.14.27 0 0a.52.52 0 0 1 .06-.13c.06-.09 0-.06-.08.1l.06-.07c.1-.1.09-.09-.06 0 0-.06.18-.1.23-.13s-.25.07 0 0l.3-.08c.05 0 .35-.06.13 0s-.11 0 0 0h.37c.36-.05-.3 0 .07 0h.28.6.28-.07.17c.19 0 .39.09.58.15 0 0 .28.12.16.06s.14.07.16.09a1.73 1.73 0 0 1 .27.15l.14.09c-.1-.07.11.09.13.11l.21.21.17.19.06.08a5.29 5.29 0 0 1 .29.52c0-.1 0 .08 0 .11a2.17 2.17 0 0 1 .07.24c0 .19.08.38.13.57a.74.74 0 0 0 .71.54.78.78 0 0 0 .71-.54z"/><path d="m612.82 402.6c2.71 0 2.71-4.21 0-4.21s-2.72 4.21 0 4.21z"/></g><path d="m741.32 318.35c-2.75 1.06-4.83 3.35-6.59 5.71-2.21 3-4.14 6.36-4.27 10.05s2.1 7.68 5.71 8.49c3.87.87 7.5-2 10.46-4.64a17 17 0 0 0 -1.53 5.63 5.82 5.82 0 0 0 2.3 5.11c1.68 1.08 3.87.86 5.83.44a3.73 3.73 0 0 0 1 4 6.73 6.73 0 0 0 4 1.67c2.55.28 5.36-.43 6.94-2.45s1.33-5.46-.9-6.73"/><path d="m741.09 317.52c-3.9 1.36-6.63 4.73-8.83 8.08s-3.79 7.49-2.79 11.56c.84 3.45 3.48 6.47 7.11 7 4.34.58 8.07-2.4 11.11-5.09l-2.52-1.47c-1.32 3.28-2.51 7.05-.58 10.36s5.69 3.45 9.06 2.76l-2-2c-1 2.75.7 5.64 3.21 6.84a10.59 10.59 0 0 0 8.12.29 7.13 7.13 0 0 0 4.68-5.29 6 6 0 0 0 -2.61-6.29c-1.76-1.1-3.36 1.67-1.62 2.78a2.79 2.79 0 0 1 1 2.95 4 4 0 0 1 -2.68 2.86c-2.2.81-8.38.44-7.05-3.29.43-1.23-.87-2.19-2-2-2.2.46-4.85.61-5.81-1.88s.21-5.1 1.09-7.35c.59-1.51-1.5-2.39-2.52-1.47-2.27 2.05-5.27 4.78-8.6 4.39-2.82-.34-4.61-3.07-5.08-5.68-.59-3.32 1-6.66 2.73-9.39s4-5.66 7.14-7.13c.88-.41.26-1.89-.66-1.57z"/><path d="m670.4 510.91c-1.73-4.88-3.82-9.62-6-14.33a139.3 139.3 0 0 0 -7.1-14.07c-1.16-1.93-4.24-.13-3 1.77 2.74 4.28 5.59 8.51 8 13a146.17 146.17 0 0 1 6.39 14.09c.43 1.06 2.14.64 1.74-.48z"/><path d="m737.32 477c-26.1 10.87-52.6 22-74.47 39.9-3.73 3-7.66 7.33-6.49 12 .6 2.39 2.44 4.24 3.74 6.35 4.4 7.15 2.71 17.67 9.16 23.05 3.82 3.19 9.44 3.36 14.16 1.79s8.77-4.6 12.84-7.46c22.72-15.9 48.36-27 72.92-39.9 3.52-1.85 7.61-5 6.55-8.83-.59-2.13-2.63-3.48-4.5-4.66-3.53-2.24-7.08-4.66-9.47-8.1-2.84-4.1-3.76-9.29-6.52-13.45s-8.94-7-12.67-3.67" fill="#18c4ff"/><path d="m737.1 476.26c-20.44 8.18-41 16.49-59.72 28.22a157.62 157.62 0 0 0 -13.38 9.29c-3.86 3-8.51 6.61-9.47 11.73a9.67 9.67 0 0 0 1.44 7c1.21 1.95 2.72 3.67 3.63 5.81 1.66 3.92 2 8.25 3.17 12.33s3.23 8.16 7.1 10.36c4.27 2.47 9.69 2.4 14.25.83 5.27-1.8 9.68-5.24 14.21-8.37s9.39-6.21 14.23-9.08c9.82-5.84 20-11.09 30.18-16.23 5.11-2.58 10.23-5.12 15.34-7.7q3.78-1.9 7.55-3.84a60.24 60.24 0 0 0 7-3.83c3.65-2.56 6.92-7 3.88-11.38-1.43-2-3.71-3.26-5.75-4.59a32 32 0 0 1 -6.15-5c-3.53-3.85-4.51-9.13-7-13.59-2.1-3.77-6-7.19-10.51-7.27a7.2 7.2 0 0 0 -5.35 2.18c-.94.95.3 2.71 1.47 1.91 3.22-2.21 7.5-.09 9.82 2.5 3.13 3.49 4 8.64 6.16 12.69 2.39 4.39 6.34 7.4 10.47 10.06 1.58 1 4 2.19 4.42 4.23.38 1.85-1.14 3.41-2.45 4.49a33 33 0 0 1 -6 3.51q-3.55 1.83-7.13 3.64c-4.77 2.41-9.56 4.78-14.33 7.17-9.55 4.76-19.07 9.59-28.35 14.85q-6.95 3.93-13.68 8.24c-4.39 2.84-8.56 6-13 8.79-4 2.47-8.52 4.46-13.33 3.85a10.56 10.56 0 0 1 -8.58-6.82c-1.52-3.69-1.93-7.73-3-11.56a26 26 0 0 0 -2.18-5.65c-1.07-2-2.72-3.58-3.65-5.62-2-4.36 2.33-8.51 5.36-11.05 3.91-3.29 8.05-6.35 12.27-9.24 17-11.66 35.93-20.23 54.78-28.47l6.88-3c.83-.36.23-1.81-.62-1.47z" fill="#18c4ff"/><path d="m726.33 479.56a4.15 4.15 0 0 1 -3-2c-.84-1-1.62-2.11-2.37-3.19a62.76 62.76 0 0 1 -4-6.56 81.42 81.42 0 0 1 -5.5-14.43 1.46 1.46 0 0 0 -2.82.78 54.78 54.78 0 0 0 7 15.91 66.29 66.29 0 0 0 4.83 6.83c1.47 1.82 3.25 4.22 5.86 4.08a.73.73 0 0 0 0-1.45z"/><path d="m700.18 551.61c-23.54 11.66-47.59 22.39-71.9 32.39-23.94 9.79-48.28 19-73 26.65-12 3.72-24.66 6.81-37.38 6s-23.6-6.35-33.37-14.21-19-16.77-28.32-25.25q-14.94-13.57-29.73-27.34-29-27.06-57-55.23c-9.09-9.21-18.07-18.54-26.57-28.29-7.47-8.57-14.71-17.42-23.17-25.07-14.81-13.38-34.4-22.32-54.72-20.54a45.73 45.73 0 0 0 -25.31 9.9c-7.47 6.16-12.33 14.89-14.9 24.13-6.18 22.25.15 44.82 3.7 66.91a119.1 119.1 0 0 1 .25 38.7c-1.89 11.55-4.76 23.33-3.66 35.12a41.81 41.81 0 0 0 12.11 26c6.36 6.39 14.27 11 22.07 15.36 8.22 4.6 16.72 9 24 15.08 8.61 7.22 14.64 16.73 20.07 26.43 10 17.9 19.84 38.81 39.83 47.5 9.78 4.24 19.82 3.59 29.94 1 10.64-2.73 22-7.55 33.1-4.5 10.27 2.82 17.37 11.74 23.9 19.57 7 8.37 14.58 16.05 23.84 21.91 8.82 5.57 19.15 9.41 29.71 8.9 5.59-.27 10.43-2.22 15.73-3.77 6.57-1.92 12.43.47 18.7 2.27 23.63 6.76 46.65-5.44 65.59-18.47 10.39-7.15 20.56-14.54 31.42-21s22.31-12.41 33.67-18.24c24-12.34 48.3-24.25 72.26-36.75 19.81-10.33 40.31-20.18 57.71-34.4a108.67 108.67 0 0 0 21.3-22.79c.65-.94-.88-1.82-1.52-.89-12.53 18.31-31.29 30.76-50.53 41.19-22 11.93-44.6 22.67-66.72 34.31-22.77 12-46.19 22.88-68.3 36-10.54 6.28-20.42 13.46-30.52 20.4s-20.46 13.41-32.15 17.07a61.73 61.73 0 0 1 -18.48 3c-6.31 0-12-1.62-18-3.44-5.45-1.66-10.54-2.24-16.07-.66s-10.5 3.14-16.26 3c-10.92-.37-21.21-5.52-29.82-12-8.82-6.59-15.51-15-22.66-23.25-6.39-7.38-14-14.53-23.92-16.41-10.47-2-20.77 1.66-30.76 4.41-10.66 2.94-21.21 4.18-31.43-1-9.37-4.73-16.76-12.78-22.62-21.34-11.9-17.42-18.81-38.46-35.9-51.91-14.22-11.2-32.77-16.66-45.42-29.91-17.25-18.07-8.39-42.8-5.82-64.52 2.94-24.81-6.38-48.28-7.56-72.81-1-19.84 4.06-42.39 23.2-52.24 17.74-9.14 40.36-4.31 56.56 5.87 9.6 6 17.57 14.23 25 22.67 7.82 8.85 15.4 17.88 23.48 26.5 17.78 18.94 36.42 37.12 55.21 55.05s38.18 35.82 57.62 53.34c8.56 7.72 17.09 15.89 27.24 21.51s21.63 7.63 33.19 6.76c12-.9 23.71-4.35 35.1-8.16q18.1-6 36-12.84 35.39-13.47 69.64-29.71c11.17-5.3 22.17-11 33.11-16.73.85-.44.1-1.69-.74-1.27z"/><path d="m222.08 475c-8.53-2.36-17.23-4.47-24.91-9-6.49-3.86-12.16-9.62-14.39-17a1.41 1.41 0 0 0 -2.75.37 6 6 0 0 1 -1.53 4.29c-.51.55-.94 1.08-1.44.34a16.3 16.3 0 0 1 -1-1.95c-1.44-3-2.94-6.59-2.11-10 1.38-5.61 8.2-7.14 13.05-8.14 1.69-.34 1-2.9-.71-2.57-3.58.71-7.37 1.59-10.43 3.7a10.85 10.85 0 0 0 -4.86 10 21.29 21.29 0 0 0 1.83 6.58c.72 1.68 1.5 4.22 3.16 5.21 1.89 1.14 3.82-.32 5-1.79a8.74 8.74 0 0 0 1.86-5.67l-2.75.37c5.63 17.75 25.28 23.58 41.57 26.85a.81.81 0 0 0 .43-1.57z"/><path d="m174.42 420c-.75.53-1.49 1.09-2.27 1.57l.74 1.27a29.33 29.33 0 0 1 12.11-4.56 1.11 1.11 0 1 0 -.29-2.19 26.11 26.11 0 0 0 -12.71 5.55c-.73.61.31 1.63 1 1s1.39-1 2.09-1.5 0-1.74-.71-1.22z"/><path d="m177.82 405.69q.38.78.36.15s0 0 0 0 .51-.24.67-.3c.53-.18 1-.35 1.58-.49a14.83 14.83 0 0 1 3.56-.49 17.83 17.83 0 0 1 6.94 1.45c1.18.47 2-1.47.87-2.06a16.27 16.27 0 0 0 -10.46-1.38 14.76 14.76 0 0 0 -2.51.67 5.27 5.27 0 0 0 -2.1 1.18 1.64 1.64 0 0 0 -.18 2.19 1.42 1.42 0 0 0 1.82.43c.79-.42.19-1.43-.56-1.33z"/><path d="m155.51 389.8a42 42 0 0 1 15.76-5.17 120.15 120.15 0 0 1 17.58-1.12 64 64 0 0 1 17.8 2.12 49.68 49.68 0 0 1 15.18 7.66 144.37 144.37 0 0 1 14.27 12.35c1.49 1.4 3.74-.84 2.25-2.25-8.46-8-17.42-16.26-28.73-19.91a60.7 60.7 0 0 0 -18.46-2.57 131.12 131.12 0 0 0 -18.15 1.2c-6.48.88-12.85 2.59-18.36 6.23-.9.6-.08 2 .86 1.46z"/><path d="m227.78 386a27 27 0 0 1 14.45 1.86c4.13 1.6 8.6 3.81 11.44 7.32s4.07 8.33 5.47 12.55a94.43 94.43 0 0 1 3.5 14.75c.25 1.54 2.66 1.13 2.67-.36 0-4.29-1.25-8.63-2.54-12.67a100.76 100.76 0 0 0 -4.11-11.33c-3.29-7.18-10.74-10.92-18-13a27.05 27.05 0 0 0 -13.25-.58c-.94.22-.53 1.59.39 1.43z"/><path d="m648.49 559c-2.16 4-4.47 8-6.93 11.78s-5.14 7.53-7.62 11.35c-.64 1 .89 2.2 1.64 1.27a94.83 94.83 0 0 0 7.64-11.4q3.53-6 6.57-12.24c.41-.86-.84-1.62-1.3-.76z"/><g fill="#18c4ff"><path d="m867.64 455.36a3.35 3.35 0 0 0 -.77 1.12c-.21.38-.44.75-.68 1.11a15.2 15.2 0 0 1 -1.52 2 20 20 0 0 1 -1.82 1.74 2.51 2.51 0 0 0 -1 2.65 1.07 1.07 0 0 0 2.06-.57c0 .05 0 .21 0 .1s.09-.24 0-.1a.91.91 0 0 1 .22-.31c.25-.28.54-.52.8-.79a18.75 18.75 0 0 0 1.71-2 17.92 17.92 0 0 0 1.33-2 4.89 4.89 0 0 0 .93-2.43.74.74 0 0 0 -1.24-.52z"/><path d="m875.6 462.51c.09.3-.06.52-.33.81l-1.08 1.14c-.73.75-1.47 1.49-2.21 2.22-1.49 1.47-3.05 2.88-4.66 4.22a1.19 1.19 0 0 0 0 1.65 1.21 1.21 0 0 0 1.66 0c1.76-1.6 3.45-3.28 5-5.05.78-.86 1.52-1.77 2.24-2.68s1.53-2.1.54-3a.73.73 0 0 0 -1.21.71z"/><path d="m879.09 474.2a30.51 30.51 0 0 1 -3.8 4 22.28 22.28 0 0 1 -2 1.53 21.76 21.76 0 0 0 -2.52 1.58c-.85.74.06 2.07 1.06 1.82a8.1 8.1 0 0 0 2.63-1.53 19.88 19.88 0 0 0 2.28-1.91 18.17 18.17 0 0 0 3.54-4.6.74.74 0 0 0 -.19-.94.72.72 0 0 0 -.95.06z"/><path d="m882.79 485.79a55.34 55.34 0 0 1 -4.5 4.56c-.78.72-1.59 1.4-2.42 2.06s-1.76 1.27-2.56 2 .25 2.25 1.28 1.66a16.4 16.4 0 0 0 2.66-2.05c.83-.73 1.64-1.48 2.42-2.27a42 42 0 0 0 4.24-5.08c.47-.66-.59-1.48-1.12-.87z"/><path d="m884.83 497.32a47.43 47.43 0 0 1 -4.56 3.57 36.44 36.44 0 0 1 -5.1 2.87 1.15 1.15 0 0 0 1.16 2 30.7 30.7 0 0 0 9.53-7.4.73.73 0 0 0 -1-1z"/><path d="m884.55 508.3c-2.3 1.07-4.61 2.11-6.95 3.09s-4.73 1.82-7.05 2.83c-1.13.49-.33 2.38.84 2a61.68 61.68 0 0 0 7.1-3.05c2.31-1.11 4.59-2.29 6.82-3.57.85-.49.11-1.69-.76-1.29z"/></g><path d="m422.92 209a107.16 107.16 0 0 0 -144.28-100.59 108.22 108.22 0 0 0 -59.28 53.64 107 107 0 0 0 -4.06 84.63 107.44 107.44 0 0 0 39.46 50.51 104.65 104.65 0 0 0 9.25 5.73c3.13 1.73 6.48 3.06 9.09 5.58a18.62 18.62 0 0 1 5.54 13.87v25a32.38 32.38 0 0 0 .1 3.55 17.58 17.58 0 0 0 18.07 15.77h36.11c3.87 0 7.58-.35 11-2.34a17.82 17.82 0 0 0 8.8-15.43c0-8 0-16.05 0-24.08 0-4 0-7.77 1.88-11.42a18.28 18.28 0 0 1 7.22-7.59c3.13-1.8 6.4-3.31 9.49-5.2a108.33 108.33 0 0 0 31.71-29.5 106.21 106.21 0 0 0 17.58-40.06 109.78 109.78 0 0 0 2.32-22.07c0-2.72-4.23-2.73-4.24 0a102.92 102.92 0 0 1 -9.06 42.32 104.08 104.08 0 0 1 -24.71 33.92 102.82 102.82 0 0 1 -17 12.5c-3.05 1.8-6.4 3.17-9.35 5.13a22.62 22.62 0 0 0 -7.44 8.08c-2.16 4.05-2.62 8.32-2.62 12.8v24.55c0 4.84-1.92 9.37-6.12 12-3 1.92-6.21 2.12-9.62 2.12h-35.76c-4.52 0-8.79-1.66-11.53-5.42a13.51 13.51 0 0 1 -2.59-7.95c0-.92 0-1.85 0-2.77v-24.28a22.65 22.65 0 0 0 -6.12-15.79c-2.57-2.71-5.71-4.29-9-6a106.87 106.87 0 0 1 -9.21-5.48 103 103 0 1 1 160.13-85.73c.01 2.71 4.24 2.72 4.24 0z"/><path d="m280.75 328v21.07a15.46 15.46 0 0 0 15.46 15.46h39a15.46 15.46 0 0 0 15.45-15.46v-21.07z"/><path d="m321.91 358.61a89.58 89.58 0 0 0 15.4 46.62 86.88 86.88 0 0 0 8.85 11c1.24 1.31 3.22-.67 2-2a90 90 0 0 1 -22.61-42.06 93.05 93.05 0 0 1 -2-13.59c-.07-1-1.62-1-1.58 0z"/><g fill="#18c4ff"><path d="m135.12 177.58c13.28 4.92 26.28 10.57 39 16.79 1 .5 1.91-1 .89-1.52a387.75 387.75 0 0 0 -39.46-16.93c-1-.38-1.48 1.28-.45 1.66z"/><path d="m170.34 133.48a80.89 80.89 0 0 1 14 13.3c.63.76 1.72-.33 1.09-1.09a82.55 82.55 0 0 0 -14.35-13.48c-.77-.57-1.5.71-.74 1.27z"/><path d="m207.41 123.92 1.57.8a.72.72 0 0 0 .54.08.77.77 0 0 0 .42-.33.71.71 0 0 0 -.25-1l-1.57-.81a.73.73 0 0 0 -.54-.07.71.71 0 0 0 -.17 1.29z"/><path d="m462.45 151-14.21 7c-.93.46-.12 1.86.81 1.39l14.15-7.12c.85-.43.1-1.7-.75-1.28z"/><path d="m444.2 195.19q26.35-4.89 52.71-9.8c1.07-.2.62-1.84-.45-1.64l-52.64 10c-.92.18-.53 1.57.38 1.4z"/><path d="m451.06 228.86a22.06 22.06 0 0 0 11.24-1.52.8.8 0 1 0 -.62-1.47 20.89 20.89 0 0 1 -10.62 1.52.74.74 0 0 0 -.74.73.75.75 0 0 0 .74.74z"/><path d="m420.62 117.37-7.93 7c-.76.68.37 1.81 1.13 1.12l7.83-7.13c.69-.64-.34-1.65-1-1z"/><path d="m161.26 232.81 14.17.9c1 .07 1-1.57 0-1.63l-14.17-.77c-1-.05-1 1.44 0 1.5z"/></g><path d="m719.36 540.45c16.55-7.4 32.74-15.56 48.6-24.34 4.49-2.48 9-4.93 13.46-7.44 1.75-1 .57-4-1.4-3.32l-1.55.59c-2.15.82-1.25 4.29 1 3.48l1.56-.57-1.4-3.32c-15.46 9.41-31.33 18.16-47.37 26.53-4.54 2.36-9.06 4.75-13.62 7.09-.87.45-.11 1.68.76 1.3z"/><g fill="#fff"><path d="m660.18 533.18c4.19.8 7.24-2.75 9-6.07a24.88 24.88 0 0 1 3.24-5.28 8 8 0 0 1 5.33-2.51c4.08-.38 8.33.77 12.3-.63 3.51-1.22 5.52-4.25 7.61-7.12a13.56 13.56 0 0 1 3.65-3.82c1.88-1.15 4.06-1.07 6.16-.72 4 .67 8.2 1.93 11.89-.51 3-2 4.67-5.33 6.64-8.24 2.43-3.6 5.86-6.16 10.41-5.91 2.71.14 5.22 1.6 8 1.26a7.8 7.8 0 0 0 4.66-2.55c2.25-2.37 3.76-6.56 7.29-7.25 1.35-.27.76-2.26-.56-2-3.15.52-5 3.28-6.81 5.63a11.78 11.78 0 0 1 -3.26 3.3c-2.06 1.16-4.4.19-6.5-.33a13.31 13.31 0 0 0 -12.08 2.8c-2.77 2.43-4.26 5.9-6.48 8.78a9.65 9.65 0 0 1 -3.7 3.13c-2.07.86-4.37.47-6.5.06-4-.76-7.94-1.46-11.34 1.23-2.77 2.2-4.22 5.55-6.69 8-3 3-7.1 2.64-11 2.55-4.59-.1-8.85.63-11.51 4.75-1.25 1.93-2 4.14-3.19 6.11s-3.47 4.37-6.17 4c-.91-.14-1.32 1.22-.39 1.4z"/><path d="m668.58 546.91a16.38 16.38 0 0 0 9.14-5.2 40.9 40.9 0 0 0 3.08-4.71 8.59 8.59 0 0 1 4.29-3.21c6.6-2.4 15.12.48 20.47-5.15 1.26-1.33 2.16-3 3.35-4.35a7.83 7.83 0 0 1 5-2.72c2-.31 4.09-.15 6.12-.28a18.38 18.38 0 0 0 5.38-1.13 19 19 0 0 0 8.48-6.53c2.21-2.92 4.24-6.4 8.27-6.71 2.39-.19 4.78.41 7.18.11a11.34 11.34 0 0 0 5.24-2.06 19.58 19.58 0 0 0 6.71-9.43c.44-1.19-1.44-1.68-1.89-.52-1.27 3.29-3.25 6.57-6.27 8.52a9.87 9.87 0 0 1 -5.24 1.63c-2.06 0-4.11-.34-6.16-.11-3.52.4-5.79 2.77-7.79 5.47-2.26 3-4.44 5.8-8 7.47a16.52 16.52 0 0 1 -5.55 1.5c-1.93.16-3.86 0-5.78.23a10.83 10.83 0 0 0 -4.81 1.45 13.38 13.38 0 0 0 -3.52 3.71 13.55 13.55 0 0 1 -3.82 4 14 14 0 0 1 -5.44 1.67c-3.5.45-7.06.21-10.52 1a11 11 0 0 0 -8.35 6.65 14.92 14.92 0 0 1 -10 7.29c-.9.19-.51 1.56.38 1.38z"/><path d="m767.89 497.38a.72.72 0 0 0 0-1.43.72.72 0 0 0 0 1.43z"/><path d="m671.17 871c-2 4.17-.15 9.61 4.74 10.47a6 6 0 0 0 6.94-7.79l-2 .54c1.53 3.83 7.12 5.32 10.08 2.16s1.28-8.7-2.7-10a1.1 1.1 0 0 0 -.84 2 4.79 4.79 0 0 0 6.59-6.57c-.69-1.26-2.62-.13-1.93 1.12a2.6 2.6 0 0 1 -3.55 3.56l-.85 2c2.45.81 3.51 4.44 1.76 6.38s-5.59 1.2-6.58-1.17c-.5-1.19-2.44-.72-2 .54a4.13 4.13 0 0 1 -4.76 5.4c-3.58-.71-5-4.71-3.64-7.86.38-.87-.87-1.64-1.3-.76z"/><path d="m716.26 894.54c.63-2.31 1.31-5.17 3.71-6.29 1.67-.78 4.22-.25 4.68 1.74.28 1.25 2 .84 2.09-.28.29-2.88 1.81-7 4.65-8.31s4.9 2.48 5.92 4.49a1.16 1.16 0 0 0 2.11-.27c.8-2.78 2.18-7.43 5.89-7.25s4.56 5.06 4.93 7.94c.11.8 1 1.66 1.83 1.05a2.29 2.29 0 0 1 3.76 2.25 1.21 1.21 0 0 0 2.34.64 4.71 4.71 0 0 0 -7.33-5l1.83 1c-.56-4.17-1.86-9.82-7-10.29s-7.35 5-8.48 9l2.11-.27c-1.57-3.06-4.46-7-8.43-5.55s-6 6.68-6.26 10.53l2.09-.29c-.73-2.91-4.14-4.08-6.81-3.2-3.27 1.08-4.88 4.95-5.13 8.12-.06.86 1.27 1 1.5.2z"/><path d="m776.29 861.28c.22 4.14 1.93 8.71 6.11 10.27 3.64 1.36 8.27-1.08 8-5.3l-2 .28c.93 3 4.16 5.37 7.32 4.22a5 5 0 0 0 2.73-7c-.71-1.26-2.65-.13-2 1.14 1.7 3.06 6.54 3.51 8.63.61s.09-7.45-3.39-8c-1.48-.23-2.16 2-.63 2.3 2.5.54 6 .14 6.46-3 .36-2.29-2.28-4.35-4.31-2.93-1.26.88-.06 3 1.21 2.07.77-.54.81.69.37 1.14-.79.82-2.11.61-3.1.39l-.63 2.3c1.83.29 3.27 2.58 2.18 4.29s-3.92 1.29-4.84-.33l-2 1.14a2.79 2.79 0 0 1 -1.64 3.84c-1.94.62-3.88-1-4.45-2.77-.35-1.05-2.16-1-2.05.28a3.42 3.42 0 0 1 -1.94 3.37 4.52 4.52 0 0 1 -4.37-.39c-2.87-1.72-3.65-5.09-4.26-8.14a.73.73 0 0 0 -1.43.19z"/><path d="m839.79 891a9 9 0 0 1 .55-8.3 3.73 3.73 0 0 1 1.35-1.51c.89-.4 1.34.56 1.6 1.28.45 1.27.64 2.47 1.65 3.44a1 1 0 0 0 1.73-1c-.53-2.54-.73-5.78 1.6-7.54a2.7 2.7 0 0 1 3-.4 2.1 2.1 0 0 1 1.09 2.49l2.08.88c1-2.9 3.62-5.71 7-5.07a3.71 3.71 0 0 1 3 2.45 3.17 3.17 0 0 1 -1 3.51c-1.23.88-.15 2.85 1.2 2.06a2.18 2.18 0 0 1 3.15 1.7l.88-1.16-1.57.42a1.21 1.21 0 0 0 .65 2.33l1.57-.42a1.23 1.23 0 0 0 .88-1.17 4.59 4.59 0 0 0 -6.76-3.76l1.2 2.06c3.77-2.7 2.59-8.43-1.6-10-4.92-1.83-9.28 2-10.8 6.44-.41 1.2 1.55 2.06 2.09.88 1.6-3.54-2.07-7.12-5.63-5.94-4.6 1.51-4.9 6.8-4 10.78l1.73-1c-1.4-1.29-1.06-3.6-2.73-4.8s-3.24-.18-4.29 1.2a10.42 10.42 0 0 0 -.84 10.88c.42.85 1.63.11 1.25-.73z"/><path d="m802.28 883.68a.88.88 0 0 0 0-1.76.88.88 0 0 0 0 1.76z"/><path d="m835.35 861.23a1 1 0 0 0 0-2 1 1 0 0 0 0 2z"/><path d="m867 827.14c-2.46 3.62-4 8.94-1.71 13a5 5 0 0 0 4.18 2.79c2.37 0 4.15-1.76 5.58-3.43l-1.68-.22a6.74 6.74 0 0 0 9.08 3.18 6.84 6.84 0 0 0 2.33-9.41l-1.84 1.42a4 4 0 0 0 6.16-1.86c1.35-3.43-1.24-6.54-1.74-9.82l-1.16 1.52c3.94-.18 7.58-4.12 6.3-8.17-1.07-3.38-5.46-5.44-8.56-3.45a1.11 1.11 0 0 0 1.12 1.91 3.94 3.94 0 0 1 5.11 2.18c.87 2.49-1.59 5-4 5.13a1.22 1.22 0 0 0 -1.16 1.52c.33 2.12 1.52 3.95 1.94 6a3.41 3.41 0 0 1 -.41 2.84c-.42.5-1.37 1-2 .51-1-.76-2.62.2-1.83 1.42a4.47 4.47 0 0 1 -1.47 6.24 4.57 4.57 0 0 1 -6.07-2.28 1.07 1.07 0 0 0 -1.68-.21c-1 1.22-2.32 2.94-4.07 2.92-1.5 0-2.46-1.39-2.94-2.66-1.27-3.38-.06-7.43 1.76-10.36.52-.83-.76-1.55-1.29-.76z"/><path d="m905.78 865c-3.63-2.32-6.5-7-4-11.16a4.79 4.79 0 0 1 5-2.57c1.84.42 3.7 2.16 3.4 4.2-.17 1.11 1.44 2.09 2 .85 1.75-3.72 5.24-7.32 9.4-8.17 1-.21 2.28-.16 2.82.89a3.86 3.86 0 0 1 0 2.91c-.67 2-2.61 4.1-2.42 6.35a2.14 2.14 0 0 0 1.44 1.85c.77.25 1.72-.1 2.41.35 1.65 1.07.77 3.36-.31 4.45-1.46 1.47-3.68 2-5 3.55a16.34 16.34 0 0 0 -1.52 2.5 7.64 7.64 0 0 1 -2.16 2.4c-3 2.24-11.91 5.32-13-.52a1.32 1.32 0 0 0 -1.63-.92 6.86 6.86 0 0 1 -9.06-5.25c-.23-1.4-2.69-1.09-2.51.34.71 5.57 6.92 9.55 12.27 7.46l-1.62-.92a6.62 6.62 0 0 0 5 5c2.82.71 5.89-.1 8.51-1.17a12.81 12.81 0 0 0 6.07-4.63c.71-1.08 1-2.44 2.09-3.2s2.36-1.31 3.43-2.18c1.79-1.43 3.1-3.54 2.64-5.9a4.26 4.26 0 0 0 -4.13-3.67c-.2 0-.66-.12-.55.07a3.52 3.52 0 0 1 .23-.81 17.22 17.22 0 0 1 .93-2 11.88 11.88 0 0 0 1.41-3.86c.3-2.39-.76-4.91-3.32-5.44-2.74-.57-5.75 1-7.89 2.6a17.19 17.19 0 0 0 -5.51 6.79l2.06.56a6.11 6.11 0 0 0 -4.08-6.21 6.42 6.42 0 0 0 -7.34 2.13c-4.11 5.09-.83 11.64 4.14 14.6a.74.74 0 0 0 .74-1.28z"/><path d="m919.26 788.77a7.24 7.24 0 0 0 1.9 10.18 4.33 4.33 0 0 0 5.69-.49c1.33-1.52 1.67-3.69 1.82-5.63l-1.75.72a5.83 5.83 0 0 0 9.94-5.45l-2.15.6a3.52 3.52 0 0 0 3.82 2.63 3.23 3.23 0 0 0 2-1.21 3 3 0 0 0 .54-1.13 2.15 2.15 0 0 0 .07-.71c0-.09 0-.19 0-.28 0-.51-.43-.62-1.28-.32l.27-1.06-.09.12c-.82 1.07.59 2.6 1.53 1.53 1.26-1.43-.95-3.22-2.21-1.94-.7.71-.21 1.52-.56 2.28-.48 1-1.68.24-1.92-.51a1.12 1.12 0 0 0 -2.15.6 3.82 3.82 0 0 1 -1.78 4.21 3.87 3.87 0 0 1 -4.56-.81 1 1 0 0 0 -1.75.73 8.21 8.21 0 0 1 -1 4c-.93 1.38-2.56 1.13-3.78.22a5.8 5.8 0 0 1 -1.35-7.4c.4-.72-.64-1.63-1.19-.92z"/><path d="m952.9 815.94a7.9 7.9 0 0 0 -6.7 5.39 8 8 0 0 0 2.73 8.43l-.17-1.31c-1.34 1.95-2.67 4.32-1.56 6.7a3.87 3.87 0 0 0 2 2c1.23.47 2.52-.35 3.64.09l-.82-1.44a8.2 8.2 0 0 0 9.73 9.76c1.52-.3.88-2.65-.65-2.34a5.77 5.77 0 0 1 -6.81-6.8 1.21 1.21 0 0 0 -.82-1.44c-1.34-.52-3.35.77-4.15-.7s.44-3.42 1.29-4.73a1.11 1.11 0 0 0 -.39-1.48c-4.32-3.22-2.16-9.74 2.85-10.61.85-.14.66-1.62-.2-1.51z"/><path d="m943.75 891a14.36 14.36 0 0 1 -.31-5.06c.17-1.33.43-3.36 2-3.67 3.09-.59 4.23 3.31 4.84 5.54a1.09 1.09 0 0 0 2.13-.29 11.87 11.87 0 0 1 2.06-5.77c.9-1.29 3-3.78 4.76-3.34 1.2.29 1.63 2.05 2.07 3a5.08 5.08 0 0 0 2.76 2.9 1.22 1.22 0 0 0 1.47-.84c.05-.15 1-2 .31-1.9l.89.11-.21-.09c-1.32-.57-2.51 1.33-1.16 2a1.82 1.82 0 0 0 2.16-2.85 2.25 2.25 0 0 0 -2.54-.4 3.66 3.66 0 0 0 -1.76 2.51l1.47-.84c-1.31-.51-1.68-2.82-2.37-3.9a4 4 0 0 0 -4.91-1.77c-4.35 1.57-6.91 6.84-7.17 11.18l2.13-.29c-1-3.33-3.12-7.86-7.44-6.81-1.82.45-2.67 2-3 3.74a16 16 0 0 0 .25 7.27.81.81 0 0 0 1.57-.43z"/><path d="m776.55 886.34a.92.92 0 0 0 0-1.83.92.92 0 0 0 0 1.83z"/><path d="m729 866.66 1.58-.51a.78.78 0 0 0 .44-.34.75.75 0 0 0 -.84-1.09l-1.56.56a.75.75 0 0 0 -.43.33.72.72 0 0 0 .81 1z"/><path d="m685.73 893 7.35-.51a.82.82 0 0 0 .8-.8.81.81 0 0 0 -.8-.81l-7.35.54a.81.81 0 0 0 -.8.79.8.8 0 0 0 .8.79z"/><path d="m838.5 843.26h4.73a.91.91 0 0 0 0-1.81h-4.73a.89.89 0 0 0 0 1.77z"/></g><g fill="#18c4ff"><path d="m245.82 470c33.81 40.07 68.87 79.09 105.53 116.57 17.61 18 35.43 35.93 54.11 52.83 16.85 15.25 34.89 29.63 55.27 39.92a134.56 134.56 0 0 0 35.51 12.47c7.81 1.46 19.46 1.17 22.3-8l-1.9.5c15.07 11.88 35.51 3.55 50.81-3.45l66.19-30.3 66.68-30.54 33.1-15.16c9.5-4.36 19.3-8.43 28-14.25 8.48-5.66 15.71-13.11 19-23 2.91-8.79 2.31-18.61-3.48-26.09-.61-.78-2 .27-1.38 1.07 5.53 7.18 5.84 16.56 3 24.91-3.15 9.16-10.14 16.1-18.08 21.33s-17 9.09-25.69 13.06l-31.21 14.23-124.36 56.81c-10.23 4.67-20.4 10-31.29 12.94-9.92 2.74-21.11 3.54-29.68-3.16a1.15 1.15 0 0 0 -1.9.5c-3 9.83-17.37 7.1-24.68 5.36a138.93 138.93 0 0 1 -30.67-11.44c-19.93-10.11-37.61-24.18-54.16-39.11-18-16.19-35.13-33.33-52.1-50.55q-26.53-26.93-52-54.9-28.54-31.29-55.86-63.65c-.64-.74-1.71.34-1.08 1.08z"/><path d="m773.7 531.48 1.18-1.18a.77.77 0 0 0 .23-.56.79.79 0 0 0 -.79-.79.83.83 0 0 0 -.56.23l-1.18 1.18a.8.8 0 0 0 -.23.56.77.77 0 0 0 .23.56.77.77 0 0 0 1.12 0z"/><path d="m794.69 560.7 1.18 7.09a.92.92 0 0 0 1.14.64 1 1 0 0 0 .65-1.13l-1.18-7.09a.94.94 0 0 0 -1.14-.65 1 1 0 0 0 -.65 1.14z"/><path d="m781.53 648.29q14.15 26.73 26.61 54.3c8.33 18.42 16 37.13 23.09 56 1 2.67 2 5.34 3 8a25.57 25.57 0 0 1 1.54 5.7c.34 2.91.19 7.17-3.38 7.81a1.19 1.19 0 0 0 -.71 1.74 47.91 47.91 0 0 1 7.92 31.37c-.1 1.21 2 1.51 2.15.29a47.68 47.68 0 0 0 -8-32.86l-.7 1.74c7.53-1.33 5.19-11.8 3.42-16.65q-5.47-14.73-11.47-29.35c-7.92-19.39-16.48-38.54-25.8-57.3q-7.9-15.93-16.46-31.51c-.45-.81-1.67-.09-1.24.72z"/></g></svg>