<?xml version="1.0" ?><svg viewBox="0 0 1000 1000" xmlns="http://www.w3.org/2000/svg"><path d="m90.4 146.46c-8.15-1.53-17 .66-22.11 7.54-2.26 3-3.82 7.08-3.35 10.91.46 3.67 3.91 7 7.68 5.12l-1.79-1.38a8.89 8.89 0 0 0 4 9.36c1.29.81 2.49-1.24 1.19-2a6.27 6.27 0 0 1 -2.81-6.67 1.24 1.24 0 0 0 -1.79-1.38c-1.42.65-3-.52-3.52-1.77a7.67 7.67 0 0 1 -.25-4.62 15.63 15.63 0 0 1 4.1-7.71c4.68-4.88 11.64-6.52 18.2-5.61 1.13.16 1.65-1.53.48-1.75z" fill="#fff"/><path d="m524.76 270.91a46.7 46.7 0 0 0 -3.21-14.9c-1.71-4.33-3.9-8.81-7.66-11.72a13.05 13.05 0 0 0 -6-2.66 13.44 13.44 0 0 0 -7.06 1.15c-3.72 1.5-10.14 3.11-10.06 8.2a5.53 5.53 0 0 0 3.69 4.74c2.5 1.07 5.26.58 7.84 1.29l-.85-2.09c-3.3 5.41-4.58 12.75-2.3 18.79a1.38 1.38 0 0 0 2.65-.73c-1.42-5.77-1.05-11.46 2.1-16.62a1.44 1.44 0 0 0 -.85-2.09 46.52 46.52 0 0 0 -5.78-.69c-1.31-.19-3.25-.79-3.61-2.27-.48-1.93 1.8-3.24 3.24-3.87 1.8-.8 3.66-1.58 5.52-2.26a10.06 10.06 0 0 1 10.65 1.87c3 2.62 4.87 6.4 6.36 10a55.2 55.2 0 0 1 3.6 13.85c.14 1.06 1.77 1.13 1.72 0z"/><path d="m500.67 244.73c.23-7.8.49-15.6.63-23.4.06-3.38.43-6.9 0-10.27-.36-2.88-1.87-5.11-4.79-5.83a54.87 54.87 0 0 0 -10.77-1.15 83.36 83.36 0 0 0 -11.61.33c-1.72.16-3.44.38-5.16.65a16.35 16.35 0 0 0 -5.13 1.2c-2.86 1.53-3.13 5.69-3.53 8.55a317.89 317.89 0 0 0 -2.78 45.32q0 5.65.21 11.3c.1 3 .23 6.26 2 8.81 1.66 2.38 4.36 3.64 7.08 4.41a51.75 51.75 0 0 0 10.85 1.71 54.82 54.82 0 0 0 12.14-.58c3.28-.53 6.42-1.83 8.07-4.89s1.74-6.86 2.08-10.24q.61-6.4.91-12.83c.07-1.54-2.31-1.53-2.4 0-.18 3.4-.44 6.79-.82 10.17a60 60 0 0 1 -1.4 9.34 7 7 0 0 1 -5.25 5.37 38.49 38.49 0 0 1 -9.45 1 54.65 54.65 0 0 1 -10.14-.84c-2.64-.48-5.54-1-7.78-2.58s-2.92-4.43-3.07-7.15c-.2-3.34-.23-6.7-.27-10.05a357 357 0 0 1 1.89-41.23 89.23 89.23 0 0 1 1.33-9.77c.28-1.33.5-3 1.92-3.6a22.42 22.42 0 0 1 4.75-.92 83.06 83.06 0 0 1 20.42-.5 29.61 29.61 0 0 1 5.64.81 3.48 3.48 0 0 1 2.48 3 21.54 21.54 0 0 1 .19 4.47v6c0 7.8 0 15.6.09 23.4a.86.86 0 0 0 1.71 0z"/><path d="m483.76 285.84a32.18 32.18 0 0 0 5.37 5.63 33.45 33.45 0 0 0 3.13 2.29c.56.36 1.12.71 1.71 1l.8.41.44.22.18.09c.19.11.18.08 0-.09l-.18-.64v.13l.17-.64v.07l.75-.58h-.07.68l.34.23.33.56v-.06l-.33 1.24h.06a1.27 1.27 0 0 0 -1.8-1.8 1.38 1.38 0 0 0 1 2.35 1.43 1.43 0 0 0 1.23-2.23c-.44-.74-1.51-1-2.24-1.39s-1.54-.79-2.29-1.24a32.91 32.91 0 0 1 -7.89-6.56c-.61-.68-1.85.25-1.29 1z"/><path d="m641.41 297.05q-14.5 25.92-30.53 51c-1.22 1.92-3 4.08-5.23 3.71a5.94 5.94 0 0 1 -3.09-2.12c-23.24-24.79-46.84-50.1-61.45-80.77-1.44-3-3.13-6.41-6.32-7.42-2.67-.84-5.55.29-8 1.68-13.75 7.89-24.06 23.8-31.79 37.29-9.14 15.94-3.55 27.4 4.14 42.24 8.14 15.69 17.12 31.11 28.78 44.48 14.49 16.6 33.62 30 55.33 33.74 29.67 5.09 61.76-10.12 76.59-36.32" fill="#18c4ff"/><path d="m87.77 161.25a59 59 0 0 0 -50.27 5.68c-4.28 2.71-8.32 6.12-10.51 10.69s-2.33 9.64-1.61 14.54c2.24 15.22 12.8 28.33 25.81 36.54s28.3 12.08 43.51 14.4c25.38 3.86 51.23 3.75 76.83 1.74 48.09-3.78 97.51-15.14 135.16-45.31 8-6.42 15.52-13.81 20-23s5.64-20.53 1-29.66c-5.6-10.93-19.57-16.76-31.27-13-2.42.77-5.17 3.11-3.9 5.3 5.09 1.19 8.78-4.95 9.48-10.13 1.4-10.41-2.52-21.91-11.33-27.63s-22.36-3.81-27.67 5.25c7.08-14.68-2.06-33.95-17.15-40.11s-33.38-.44-44.51 11.45c-3.9 4.17-7.2 10-5.16 15.38 3-6.11 1.91-13.69-1.6-19.53s-9.09-10.17-15-13.54c-19.26-11-44.08-12.82-63.74-2.56s-32.66 33.17-29.13 55.07c.89 5.55 3.15 11.43 8.07 14.16 1.93-5.72-2.39-12.32-8.21-14s-12.24 1-16.37 5.36-6.27 10.35-7.4 16.28c-1.42 7.38-1.42 15.2 1.29 22.21s8.39 13.17 15.63 15.17c3.41.95 7.32.9 10.24-1.11s4.3-6.38 2.28-9.3" fill="#18c4ff"/><path d="m267.55 318.38a67.47 67.47 0 0 1 85.45-22.56 6.51 6.51 0 0 1 3.24 2.67 6.87 6.87 0 0 1 .09 4.19l-2.78 14.32c2.85 3.13 8 1.2 11.66-.91l27.82-16c2.61-1.5 5.56-3.54 5.6-6.56 0-1.73-.95-3.3-1.9-4.74l-26-39.75c-.88-1.35-2.41-2.89-3.83-2.14a3.2 3.2 0 0 0 -1.28 1.83 38.61 38.61 0 0 0 -2.51 13.61c-6.08-5.67-14.63-7.81-22.89-8.77a108.33 108.33 0 0 0 -80.58 23.92c-3.9 3.23-7.87 7.41-7.69 12.48a17.53 17.53 0 0 0 1.27 5.25q3.67 10.35 7.85 20.53c.68 1.65 2.53 3.61 3.84 2.4" fill="#fff"/><path d="m383 349.26a67.44 67.44 0 0 1 -85.42 22.55 6.45 6.45 0 0 1 -3.24-2.67 6.77 6.77 0 0 1 -.09-4.18l2.76-14.33c-2.85-3.12-8-1.19-11.66.92l-27.82 16c-2.61 1.51-5.56 3.55-5.61 6.56 0 1.74 1 3.3 1.91 4.75l26 39.74c.88 1.35 2.4 2.89 3.83 2.14a3.19 3.19 0 0 0 1.28-1.82 38.89 38.89 0 0 0 2.51-13.62c6.07 5.68 14.63 7.82 22.89 8.77a108.29 108.29 0 0 0 80.58-23.91c3.9-3.24 7.87-7.42 7.69-12.48a18.08 18.08 0 0 0 -1.27-5.25q-3.67-10.37-7.85-20.53c-.68-1.66-2.53-3.62-3.84-2.4" fill="#fff"/><path d="m488.61 434.84c-14.91-22.1-23.82-49.75-32.84-74.83-.69-1.9-1.36-3.93-1-5.91.6-2.92 3.34-4.85 5.93-6.33 7-4 11.4-3.2 18.95-6.09l45.15-17.26c2.61-1 5.47-2 8.14-1.17a11.35 11.35 0 0 1 4.92 3.81c5.31 6.2 9.27 13.42 13 20.67q11.15 21.6 20.15 44.23c.71 1.77 1.61 3.76 3.42 4.36a6.67 6.67 0 0 0 4-.36l29.88-9.18c3.45-1.06 7.33-2.08 10.52-.41 4.9 2.56 4.84 10.15 1.31 14.41s-9.13 6.06-14.37 7.81c-11.76 3.92-23.26 8.57-34.76 13.22l-55.2 22.31"/><path d="m489.33 434.41c-14.89-22.69-23.09-49-32.08-74.37a12.71 12.71 0 0 1 -1.13-5 5.69 5.69 0 0 1 2.06-3.73 23 23 0 0 1 8.16-4.48c2.56-.87 5.23-1.34 7.85-2a75.76 75.76 0 0 0 9.61-3.21l21.87-8.36 10.71-4.09c3.57-1.37 7.11-2.87 10.74-4.07a9.34 9.34 0 0 1 5.06-.6 8.06 8.06 0 0 1 3.91 2.67 59.43 59.43 0 0 1 6.22 8.23 195 195 0 0 1 10.41 19.05q4.93 9.9 9.44 20 2.37 5.34 4.61 10.71a97.31 97.31 0 0 0 3.9 9.37c1.56 2.86 4.16 3.84 7.3 3 3.8-1 7.55-2.31 11.31-3.46 7.14-2.2 14.25-4.66 21.47-6.56 2.85-.75 6.43-1.32 8.73 1a7.48 7.48 0 0 1 1.73 6c-.59 5.85-6 9-11 10.92-6.6 2.53-13.37 4.61-20 7.13-7.17 2.74-14.28 5.63-21.4 8.5q-21.39 8.65-42.78 17.29l-10.59 4.26c-1.72.69-1 3.53.78 2.82q22.29-9.06 44.61-18.06c14.71-6 29.37-12.11 44.41-17.19 5.85-2 12.45-3.86 16.35-9 2.86-3.79 3.62-9.81.69-13.78-4.38-5.93-12.47-2.66-18.12-.93l-22.77 7c-1.74.54-3.76 1.5-5.6 1.52s-2.5-1.52-3.1-2.89c-1.5-3.39-2.79-6.88-4.24-10.3q-4.45-10.57-9.45-21c-3.32-6.94-6.72-13.88-10.48-20.6a97.46 97.46 0 0 0 -5.77-9.22c-1.92-2.7-4-5.66-6.65-7.67-3-2.26-6.55-2.05-10-.89-3.7 1.26-7.34 2.78-11 4.17l-22.34 8.55c-6.95 2.65-13.84 5.73-21.13 7.34-5.63 1.24-11.95 2.94-16 7.28-2.5 2.65-2.77 5.91-1.69 9.29s2.35 6.51 3.52 9.76c2.36 6.56 4.72 13.12 7.22 19.63 5 13.11 10.53 26.11 17.69 38.21 1.73 2.93 3.56 5.81 5.5 8.61.61.89 2.06.07 1.45-.85z"/><path d="m491.26 438.47c-6.22-11.39-11.69-23.2-16.87-35.09q-8.16-18.76-15.19-38c-.52-1.43-1-2.85-1.55-4.28a21.35 21.35 0 0 1 -1.51-5.16c-.27-3.28 2.49-5.28 5-6.75a31.42 31.42 0 0 1 8.57-3.34c2.83-.67 5.69-1.2 8.45-2.11 3.63-1.19 7.17-2.69 10.74-4.05l11.17-4.28 22.34-8.54c3-1.14 6.89-3.32 10.17-2.23 3 1 5.34 4.58 7.15 7.05a137.15 137.15 0 0 1 11 18.91c6.94 13.62 13.18 27.56 18.9 41.74 1 2.46 2.33 5.12 5.25 5.53 1.83.26 3.62-.44 5.35-1l5.69-1.74c7.59-2.33 15.17-4.68 22.76-7 2.93-.89 6.5-2.06 9.42-.56a6.28 6.28 0 0 1 3.11 5.48c.25 6-4.56 9.7-9.58 11.86-2.94 1.26-6 2.16-9 3.19-3.7 1.28-7.37 2.62-11 4-7.32 2.77-14.59 5.72-21.85 8.65q-21.86 8.83-43.7 17.66l-10.59 4.26c-1.72.69-1 3.53.78 2.82q22.75-9.25 45.53-18.43c15-6.05 29.85-12.26 45.15-17.37 5.61-1.88 12.14-4.1 15.37-9.46 2.52-4.19 2.79-10.68-1.19-14.1-2.4-2.07-5.58-2.37-8.61-1.9-3.79.6-7.5 2-11.16 3.17-7.75 2.37-15.48 4.81-23.24 7.13-1.6.48-3.22.92-4.39-.58a19.06 19.06 0 0 1 -2.14-4.65q-2.24-5.54-4.6-11-4.66-10.83-9.84-21.44c-3.4-7-6.84-14-10.88-20.62a80.7 80.7 0 0 0 -6.16-8.84c-2.1-2.61-4.47-5.35-8-5.84-3.76-.52-7.48 1.38-10.89 2.68l-11.22 4.31-23.27 8.9c-3.55 1.36-7.08 2.88-10.73 3.95-2.88.84-5.85 1.31-8.74 2.11a31.49 31.49 0 0 0 -8.83 4c-2.4 1.58-4.66 3.72-5.11 6.7-.52 3.48 1.36 7.07 2.54 10.25s2.41 6.37 3.64 9.54q3.81 9.76 7.92 19.39c5.49 12.88 11.33 25.62 17.93 38q2.14 4 4.42 8a.85.85 0 0 0 1.46-.85z"/><path d="m613.18 206.58a46.9 46.9 0 0 1 -4.37 21.7c-1.07 2.28-2.07 5.52.07 6.84a10.78 10.78 0 0 0 2 .72c2.92 1.11 3.69 4.78 4.15 7.87 1 6.57 2.9 13.77 8.55 17.27s12.78 2.09 18.83-.35c16.63-6.69 30.55-22.22 31.23-40.13.32-8.39-2.2-16.7-6.12-24.11-2.92-5.53-6.77-10.76-12.07-14.06-9.58-6-22.54-4.42-32 1.73-6.47 4.2-11.37 14.88-10.29 22.52" fill="#fff"/><path d="m612.31 206.58a51.36 51.36 0 0 1 -3.87 19.26c-.94 2.27-2.34 4.58-2.14 7.14a4.2 4.2 0 0 0 1.27 2.81c1 1 2.51.9 3.61 1.71 1.83 1.34 2.21 4.16 2.53 6.24a51 51 0 0 0 1.63 7.53c1.55 4.93 4.42 9.64 9.33 11.77 5.83 2.52 12.75 1.15 18.26-1.55 1-.5.31-2.15-.77-1.82-5 1.55-10.59 3.13-15.74 1.22-4.8-1.77-7.37-6.37-8.72-11a57.23 57.23 0 0 1 -1.44-7 14.07 14.07 0 0 0 -2-6 6.19 6.19 0 0 0 -2.34-2c-1-.46-2.52-.45-2.85-1.63-.6-2.09 1.24-4.81 2-6.64a43.79 43.79 0 0 0 3-20 .87.87 0 0 0 -1.73 0z"/><path d="m533.75 464.8a64.66 64.66 0 0 1 -46.75-25.57c-2.46-3.31-4.65-7-5.1-11.12a2.13 2.13 0 0 1 .4-1.82 2.22 2.22 0 0 1 1.81-.35 45.49 45.49 0 0 1 10.13 2.8l16.5 6-8.74-3.58a3.3 3.3 0 0 1 -1.35-.83c-1.18-1.44.67-3.4 2.35-4.2 12.81-6 29.66-1.58 37.82 10" fill="#fff"/><path d="m533.75 463.84a63.64 63.64 0 0 1 -32.33-12 62.46 62.46 0 0 1 -12.52-12.05 30.76 30.76 0 0 1 -4.94-8.27 20.48 20.48 0 0 1 -.59-2c-.1-.46-.47-1.52-.26-2 .36-.77 3.88.35 4.63.56 3.79 1 7.46 2.51 11.14 3.83s7.65 2.75 11.47 4.14c1.6.58 2.22-1.91.69-2.53l-6.62-2.71c-.57-.23-2.65-.73-2.81-1.41s1.05-1.47 1.47-1.74a22.36 22.36 0 0 1 9.33-2.7 30.92 30.92 0 0 1 18.91 4.39 28.29 28.29 0 0 1 8.24 7.59c1.09 1.53 3.65.06 2.54-1.49a32 32 0 0 0 -19.75-12.56 34.26 34.26 0 0 0 -11.82-.31 28.9 28.9 0 0 0 -5.8 1.49c-1.87.7-3.82 1.5-5 3.19-1.43 2.05-.57 4.16 1.62 5.1 3 1.29 6 2.46 9 3.69l.69-2.53-11.45-4.16c-3.69-1.34-7.35-2.84-11.14-3.83-2.39-.63-7.48-2.19-7.9 1.67-.34 3.07 1.41 6.62 2.92 9.17a56.8 56.8 0 0 0 13.11 14.75 66.19 66.19 0 0 0 16.16 9.71 64.6 64.6 0 0 0 21 5c1.24.08 1.22-1.82 0-1.91z"/><path d="m629.67 660.74q-9.23 121.26-21.81 242.16c-1.38 13.32-3.86 28.44-15.12 35.68-2.33 1.5-5.32 3.21-5.12 6 .21 3 3.9 4.15 6.86 4.52a185.67 185.67 0 0 0 52.79-1.1c2-.33 4.18-.77 5.64-2.22 1.75-1.76 2-4.48 2.15-7 3.66-54 25.07-104.9 41.12-156.58s26.74-108.16 9-159.3"/><path d="m606.25 914.36c-1.87 9.75-5.42 19-13.51 24.22-2.33 1.5-5.32 3.21-5.12 6 .21 3 3.9 4.15 6.86 4.52a185.67 185.67 0 0 0 52.79-1.1c2-.33 4.18-.77 5.63-2.22 1.76-1.76 2-4.48 2.16-7 .29-4.18.69-8.34 1.17-12.48a295.94 295.94 0 0 1 -49.98-11.94z" fill="#18c4ff"/><path d="m776 635.28a984.37 984.37 0 0 0 125.76 200c11.41 14.07 23.67 28.78 26.51 46.66.64 4 .78 8.17 1.29 12.21a5.05 5.05 0 0 0 8.32 3.15c18.8-16.22 22.21-17.79 34.78-37a15.44 15.44 0 0 0 1.75-12.52c-.8-2.68-2.13-5.44-4.38-7.11-22.69-16.91-42.08-78.55-53.27-103.21-27.11-59.76-39-86.86-87.21-132.76"/><path d="m972.64 860.28a15.44 15.44 0 0 0 1.75-12.52c-.8-2.68-2.13-5.44-4.38-7.11-4.46-3.32-8.79-8.39-13-14.55l-40 29.34c5.39 8.18 9.66 16.89 11.19 26.52.64 4 .79 8.17 1.29 12.21a5.05 5.05 0 0 0 8.32 3.15c18.85-16.22 22.26-17.79 34.83-37.04z" fill="#18c4ff"/><path d="m684.65 237.69a222.49 222.49 0 0 0 -73 47l29.08 13.93c-21.67 52-21.63 109.91-28.59 165.77a649 649 0 0 1 -58.34 199.22c-5 10.55-10.32 23.29-4.25 33.27 5 8.27 15.68 10.75 25.21 12.49 32.49 5.92 66.87 11.69 97.79.09 11.65-4.37 22.4-11.1 34.39-14.45 14.33-4 29.52-3 44.38-3.84s30.61-4.27 41-15c3-3.14 5.5-6.81 8.72-9.76 12.6-11.5 32-8.8 49-10.41a86.62 86.62 0 0 0 37.26-12.55c3.71-2.29 7.64-5.61 7.49-10-.08-2.55-1.58-4.81-3-6.93-52.49-77.27-89.14-164.14-121.17-251.9-14.74-40.41-31.39-84.63-68.9-105.68" fill="#18c4ff"/><path d="m674.53 220.5a46 46 0 0 0 -5-23.19c-3.21-6.5-7.64-12.84-14-16.53-6-3.5-13.29-4.21-20.07-2.93-6.38 1.2-13 4.14-17.19 9.29-4.27 5.3-7.31 12.83-6 19.71a1 1 0 0 0 1.95-.27c-.39-5.75 1.7-11.6 5-16.29 3.52-5.08 9.18-8 15.07-9.45 6.11-1.52 12.86-1.31 18.57 1.51 6.07 3 10.29 8.52 13.43 14.35 3.92 7.27 6.63 15.48 6.6 23.8a.87.87 0 0 0 1.74 0z"/><path d="m617.09 220.28a7.72 7.72 0 0 1 .68.72l-.17-.22a2.39 2.39 0 0 1 .21.34l-.12-.27a1.17 1.17 0 0 1 .09.32v-.33a1.69 1.69 0 0 1 0 .45v-.34a.86.86 0 0 1 -.06.23l.13-.3a1 1 0 0 1 -.1.17l.2-.26-.08.09 1.26-.34.31.14-.15-.09.27.2a.65.65 0 0 1 -.17-.16l.21.27a1 1 0 0 1 -.1-.18l.13.32a.79.79 0 0 1 -.06-.22l.05.36a.67.67 0 0 1 0-.2l-.05.36s0-.08 0-.11a1.38 1.38 0 0 0 -.13-1.05 1.44 1.44 0 0 0 -.82-.63 1.38 1.38 0 0 0 -1 .14 1.36 1.36 0 0 0 -.62.81 2.64 2.64 0 0 0 0 1 2.12 2.12 0 0 0 .25.6 2.18 2.18 0 0 0 1.24 1 1.16 1.16 0 0 0 .69 0 1.24 1.24 0 0 0 .58-.33 2.38 2.38 0 0 0 .48-.83.85.85 0 0 0 0-.17 3.56 3.56 0 0 0 0-.47 1.78 1.78 0 0 0 -.11-.65 3.3 3.3 0 0 0 -.19-.43c-.08-.13-.18-.25-.27-.37a2.68 2.68 0 0 0 -.79-.63 4.35 4.35 0 0 0 -1-.36.88.88 0 0 0 -1 .41.89.89 0 0 0 .14 1.06z"/><path d="m622.51 210.31v.08l-.17-.22a1 1 0 0 0 -.43-.27 4 4 0 0 0 -.49-.17c-.3-.1-.61-.18-.92-.25-.59-.14-1.19-.26-1.8-.35a10.12 10.12 0 0 0 -2.13-.11 2.31 2.31 0 0 0 -2 1 2 2 0 0 0 -.27 1 2.19 2.19 0 0 0 .57 1.34 1.62 1.62 0 0 0 1.45.48 1.74 1.74 0 0 0 1.26-.83l-.28.36-.79.46c.27-.11.53-.24.8-.36l-.44.19a20.61 20.61 0 0 1 2.58-.62h.38.64.64a1.51 1.51 0 0 0 1.11-.36l-.43.25h.09a.93.93 0 0 0 .41-1.54z"/><path d="m645.18 215.49a2 2 0 0 0 -1.51.65 3 3 0 0 0 -.68 1.65 3.93 3.93 0 0 0 .53 2.81 1 1 0 0 0 .68.45 1 1 0 0 0 .79-.26 1.65 1.65 0 0 0 -.39-2.55 1 1 0 1 0 -.76 1.8c-.15-.08-.2-.09-.13-.06s0 0-.11-.09a.17.17 0 0 0 .06.06c-.1-.14-.13-.17-.09-.11s-.1-.25-.05-.08 0 .18 0-.11c0 .15.06-.21 0-.1s.05-.09.05-.09c-.05.08 0 0 .07-.09h1.36s.1.15 0 0l-.06-.1-.06-.11c-.09-.17.05.14 0 0a3.47 3.47 0 0 1 -.13-.46.5.5 0 0 0 0-.12c0-.11 0 .21 0 0s0-.16 0-.24a4.68 4.68 0 0 1 0-.53s0-.08 0-.13 0-.17 0 0 0 0 0 0v-.13c0-.09.05-.17.07-.25s-.08.15 0 0l.06-.1c.06-.11 0 0 0 0s.06-.07.08-.09.07 0 .08-.07-.14.09 0 0 .18-.08.05 0 .15 0 0 0 0 0 0 0a.86.86 0 1 0 0-1.72z"/><path d="m621.93 241.76c.56 0 1-.5 1.35-.87s.54-.55.79-.84.56-.68.83-1a5.09 5.09 0 0 0 .34-.47 5.52 5.52 0 0 0 .28-.54 1.05 1.05 0 1 0 -1.82-1.04c-.21.31-.42.62-.61.94s-.4.63-.62.93a5 5 0 0 0 -.32.44.69.69 0 1 0 0-.06l-.09.12-.18.21c-.33.41-.85.81-.85 1.38a.87.87 0 0 0 .86.85z"/><path d="m614.29 189.67c.82 6.08 6.84 9.89 12.31 12.67s11.62 6.08 13.15 12c.6-4.1 6.68-5.46 9.8-2.74s3.35 7.68 1.76 11.51a6 6 0 0 0 -.66 2.28c0 1.35 1.11 2.41 2.06 3.38a30.35 30.35 0 0 1 8.47 18.6c.52 6.38-1 12.71-2.25 19s-2.21 12.81-.62 19 6.33 12 12.65 12.95c2.61.39 5.32 0 7.89.58 7.19 1.75 10.29 10.64 16.95 13.87 5.28 2.57 11.6 1 17.08-1.11 5.93-2.29 12.4-6.25 13-12.58.26-3.05-1-6.05-1-9.11 0-4.57 2.62-8.73 5.62-12.18s6.47-6.56 8.71-10.54 3-9.25.36-13c-3.47-4.93-11.28-5.36-14.45-10.48-2.49-4-1.08-9.22.17-13.79s2.09-10.06-1.13-13.53c-1.61-1.74-3.94-2.59-6.14-3.47a88 88 0 0 1 -22.33-13c-8.18-6.55-15.13-14.52-23.26-21.12s-18-11.91-28.47-11.71c-14.79.28-27 11.12-37.66 21.33a14.74 14.74 0 0 0 -3.66 4.56c-1.36 3.17-.29 7 1.86 9.67s5.24 4.47 8.31 6a23.58 23.58 0 0 1 2.12-16"/><path d="m613.45 189.9c.89 6.21 6.57 10.08 11.68 12.83s11.82 5.72 13.55 11.92c.28 1 1.94 1.12 2.13 0 .45-2.57 3.24-3.7 5.62-3.3 3.22.54 4.7 3.85 4.72 6.83a11.07 11.07 0 0 1 -1 4.7c-.75 1.68-1.05 3.23 0 4.87s2.44 2.71 3.55 4.13a29.25 29.25 0 0 1 6.08 15.75 50.6 50.6 0 0 1 -1.24 13.15c-1.65 8.3-4 17-1.69 25.39 1.69 6.26 6.6 12.36 13.21 13.65 3.65.72 7.55-.26 10.92 1.65 2.59 1.47 4.53 3.85 6.48 6a29.42 29.42 0 0 0 6.62 6.08 16.71 16.71 0 0 0 10.88 1.87 39.19 39.19 0 0 0 11-3.39 24.49 24.49 0 0 0 8-5.49 12.39 12.39 0 0 0 3.46-8.85c-.08-2.15-.7-4.23-.93-6.37a12.15 12.15 0 0 1 .72-5.57c2.74-7.47 10.48-11.63 13.86-18.74a15.36 15.36 0 0 0 1.32-10.33 12.11 12.11 0 0 0 -5.94-7.19c-2.53-1.51-5.39-2.48-7.77-4.24-2.84-2.08-3.63-5.2-3.26-8.59.71-6.61 5.17-14.3.57-20.49-2.28-3.08-6.07-4.08-9.43-5.52a88.6 88.6 0 0 1 -10.74-5.54c-7.15-4.33-13.36-9.79-19.38-15.56s-11.82-11.52-18.69-16.08c-6.37-4.22-13.63-7.36-21.33-7.85-7.37-.46-14.57 1.84-20.91 5.46s-12.13 8.61-17.54 13.67c-2.67 2.5-6.09 5.09-7.12 8.76a11.47 11.47 0 0 0 2.33 9.91 22.65 22.65 0 0 0 8.94 6.42 1.31 1.31 0 0 0 1.9-1.47 21.53 21.53 0 0 1 1.78-15.11c.62-1.21-1.2-2.28-1.83-1.07a26.66 26.66 0 0 0 -2.45 16.87l1.91-1.46c-3.13-1.81-6.66-3.73-8.57-6.93a7.53 7.53 0 0 1 .82-9.51c2.48-2.69 5.31-5.14 8-7.56a94.94 94.94 0 0 1 8.61-6.87c5.71-4 12.19-7.26 19.21-7.93 7.49-.71 14.76 1.58 21.2 5.27 14 8 23.57 21.53 36.67 30.7a89.1 89.1 0 0 0 10 6c3.44 1.78 7.06 3.07 10.55 4.72a8.09 8.09 0 0 1 3.85 3.17 8.85 8.85 0 0 1 1 4.47c0 3.45-1.24 6.68-2 10-.79 3.54-1.14 7.35.53 10.71 1.34 2.69 3.89 4.44 6.49 5.79s5.21 2.28 7.27 4.18c2.48 2.3 3 5.66 2.21 8.84-1.79 7.4-9 11.83-13 18a16.68 16.68 0 0 0 -2.94 10.67c.36 3.57 1.79 7.19.06 10.62-1.4 2.76-4 4.71-6.64 6.19a38.33 38.33 0 0 1 -9.93 3.8c-3.58.84-7.53 1-10.85-.8a24.58 24.58 0 0 1 -6.41-5.84 33 33 0 0 0 -6.26-6.12c-3-2-6.28-2.23-9.81-2.32a12.55 12.55 0 0 1 -8.87-3.6 17.84 17.84 0 0 1 -4.65-8c-2.33-8.27.27-16.93 1.72-25.11a49.47 49.47 0 0 0 .94-12.55 32.14 32.14 0 0 0 -2.73-10.6 31.49 31.49 0 0 0 -6.15-9 8 8 0 0 1 -1.61-1.88 3 3 0 0 1 .23-2.49 15.62 15.62 0 0 0 1-4.58 10.09 10.09 0 0 0 -3.06-8.2 7.7 7.7 0 0 0 -7-1.42 6.14 6.14 0 0 0 -4.61 4.64h2.13c-1.66-6.14-7.42-9.48-12.73-12.15s-11.9-6-13-12.48c-.18-1.11-1.83-.63-1.68.46z"/><path d="m574.5 710.21c23.86 5.06 48.55 9.2 73 6.5a113.46 113.46 0 0 0 34.5-9.56c5.55-2.52 11-5.3 16.63-7.59a78.15 78.15 0 0 1 18.06-5c22.48-3.28 47 1.64 67.6-10.33a46 46 0 0 0 12.18-10.61c3.56-4.27 7.13-8.11 12.19-10.6 9.26-4.55 20.14-4.49 30.22-4.81 11.49-.36 22.66-1.64 33.52-5.64a87.18 87.18 0 0 0 15.89-7.68c4-2.49 8.4-6.22 8.28-11.39-.08-3-1.65-5.49-3.33-7.85-1.34-1.88-4.44-.17-3.15 1.85 1.41 2.21 3.22 4.77 2.56 7.53-.56 2.33-2.53 4.17-4.38 5.56a66.51 66.51 0 0 1 -15.18 8.1c-10.54 4.22-21.44 5.86-32.72 6.32-9.82.4-20.13.33-29.48 3.78a33 33 0 0 0 -12.25 7.76c-4 4-7 8.79-11.61 12.25-18.22 13.83-42.89 10.1-64.19 11.91a85.62 85.62 0 0 0 -18 3.26 124.56 124.56 0 0 0 -16.3 6.64c-5.34 2.52-10.64 5.17-16.15 7.3a97.1 97.1 0 0 1 -17.08 4.87 140.3 140.3 0 0 1 -35.45 1.65c-12.17-.82-24.18-2.91-36.24-4.61-2.89-.41-5.78-.83-8.67-1.28-1.05-.16-1.53 1.4-.45 1.63z"/><path d="m622.17 365c-3.86 20.39-5.49 41.07-7.46 61.7-1.94 20.33-4.2 40.64-7.48 60.79q-4.74 29.13-12 57.76c-4.87 19.06-10.62 37.91-17.3 56.4s-14.19 36.59-22.61 54.35c-1.06 2.24-2.12 4.49-3.13 6.76-.93 2.1 2.07 4 3.16 1.84 4.51-8.78 8.28-18 12.08-27.11s7.38-18.23 10.75-27.46q10.2-27.86 18-56.48t12.82-57.89q2.54-14.61 4.4-29.33c1.3-10.28 2.19-20.6 3.16-30.91 1-10.48 1.81-21 2.92-31.46s2.4-20.65 3.45-31c.26-2.59.54-5.17.86-7.76.11-.94-1.48-1.15-1.66-.22z"/><path d="m640.7 299.5a.85.85 0 0 0 0-1.69.85.85 0 0 0 0 1.69z"/><path d="m684.65 238.54a.85.85 0 0 0 0-1.69.85.85 0 0 0 0 1.69z"/><g fill="#fff"><path d="m599.28 934.27a7.88 7.88 0 0 0 2.36 3.28 8.12 8.12 0 0 0 1.72 1.1 9.57 9.57 0 0 0 1 .42 5.33 5.33 0 0 0 1.13.18 1 1 0 0 0 .94-.83 1 1 0 0 0 -.69-1 12.54 12.54 0 0 1 -1.68-.52c.13 0 .07 0 0 0l-.18-.09-.39-.2c-.25-.15-.49-.32-.73-.48-.09-.07.1.09 0 0l-.19-.15-.29-.27a7.45 7.45 0 0 1 -.6-.65c-.11-.12 0 0 0 0l-.12-.16c-.09-.14-.18-.27-.26-.41a8 8 0 0 1 -.4-.77.87.87 0 0 0 -1.59.67z"/><path d="m601.64 929a11.31 11.31 0 0 0 7.45 5.17 1 1 0 0 0 1.17-.67 1 1 0 0 0 -.67-1.17 10.59 10.59 0 0 1 -3.71-1.46 9.76 9.76 0 0 1 -2.78-2.73.88.88 0 0 0 -1.16-.3.87.87 0 0 0 -.3 1.16z"/><path d="m932.59 857.89a30 30 0 0 0 -4.39 3.3 22.72 22.72 0 0 0 -1.91 1.89 2.1 2.1 0 0 0 -.56 1.29 1.33 1.33 0 0 0 1 1.35 1.06 1.06 0 0 0 1.27-.72 1.05 1.05 0 0 0 -.73-1.27.66.66 0 0 1 .49.54c0 .19 0 .24 0 .15s0 0 0 .1v-.07c0-.08 0-.09 0 0s0 .07 0 0c0 .1-.09.12 0 0 .24-.29.49-.57.75-.85.49-.54 1-1.06 1.55-1.56a27.62 27.62 0 0 1 3.35-2.67.84.84 0 1 0 -.85-1.46z"/><path d="m936.05 866.46c-2.22-1-3.82 1.35-5 2.87a53.82 53.82 0 0 0 -3.62 5.38 1.13 1.13 0 1 0 1.95 1.15c.91-1.65 1.88-3.27 2.93-4.84.49-.71 1-1.46 1.52-2.12.35-.42 1-1.09 1.57-.94a.83.83 0 0 0 1-.48.8.8 0 0 0 -.34-1z"/></g><path d="m657.9 299.75a259.77 259.77 0 0 0 -11.9 55.95c-1.36 13.75-2.53 29.44-13.44 37.91-4.4 3.41-9.84 5.12-15.15 6.77-25.06 7.79-50.31 15.62-76.41 18.68-5.1.59-10.73 1.26-14.14 5.1-3.14 3.55-3.4 8.75-3.17 13.48a104.63 104.63 0 0 0 24.06 61.51c2.37 2.83 5.1 5.66 8.68 6.56 2.81.71 5.78.11 8.57-.68a123.61 123.61 0 0 0 12.45-4.55c29.34-12 59.06-24.14 84.24-43.36 7.31-5.58 14.23-11.76 19.77-19.09 17-22.45 19.14-52.44 20.63-80.56" fill="#18c4ff"/><path d="m556.22 506.55c3.82.92 7.67-.09 11.33-1.22 4-1.22 7.82-2.76 11.69-4.27q10.92-4.28 21.73-8.83a339.42 339.42 0 0 0 41.75-20.54 205.63 205.63 0 0 0 19.4-13 110.5 110.5 0 0 0 17-15.39c9.35-10.78 15.24-23.92 18.64-37.69 3.47-14 4.54-28.44 5.24-42.82l.24-5.32c.06-1.39-2.08-1.38-2.16 0-.87 14-1.86 28.08-4.69 41.85-2.76 13.43-7.49 26.65-15.85 37.66-9 11.91-21.63 21.07-34.18 29a321.52 321.52 0 0 1 -40.36 21.02c-7 3.11-14 6.11-21 9.06-7.2 3-14.4 6.66-22 8.54a14 14 0 0 1 -6.3.31c-1.08-.23-1.55 1.41-.46 1.68z"/><path d="m523.71 438.51a.87.87 0 0 0 0-1.74.87.87 0 0 0 0 1.74z"/><path d="m657.06 299.52a244.9 244.9 0 0 0 -10.81 43c-1 6.67-1.64 13.39-2.41 20.1a78.06 78.06 0 0 1 -3.32 16.52c-1.76 5.18-4.64 10.06-9 13.41-5.36 4.07-12.25 5.69-18.57 7.65-14.24 4.42-28.46 8.85-43 12.27-8.09 1.9-16.26 3.5-24.48 4.73-6.5 1-14.56.9-19.32 6.19-.93 1 .57 2.55 1.53 1.53 4.35-4.65 11.81-4.4 17.66-5.15 7.41-.94 14.76-2.3 22.06-3.92 14.69-3.26 29.2-7.47 43.58-11.9 6.56-2 13.58-3.66 19.56-7.15a28 28 0 0 0 11.22-12.55c5.07-10.85 5-23.3 6.44-35a277.82 277.82 0 0 1 10.54-49.25c.34-1.07-1.31-1.51-1.68-.46z"/><g fill="#fff"><path d="m551.78 460.71c16.4-5.9 32.8-11.82 48.83-18.68s31.66-14.7 46.2-24.32c6.62-4.39 14.57-9.83 15.12-18.55a1.15 1.15 0 0 0 -1.94-.8c-1.52 1.89.64 4.35 2.8 3.53a4.19 4.19 0 0 0 2.12-2.35c.66-1.44 1.19-3 1.73-4.44a120.28 120.28 0 0 0 4.93-18.77c2.37-13 3.11-26.17 3.91-39.31.48-8 1-15.93 1.63-23.9.09-1.31-2-1.31-2 0-.76 12.07-1.65 24.13-2.58 36.18-.87 11.35-2 22.72-4.69 33.81-.74 3.11-1.61 6.19-2.62 9.22-.48 1.45-1 2.88-1.54 4.31-.27.69-.51 1.4-.84 2.06a3.12 3.12 0 0 1 -.47.76 1 1 0 0 1 -.43.34c-.17-.19-.27-.14-.3.17l-1.94-.81c-.48 7.54-7.76 12.4-13.42 16.23a244.73 244.73 0 0 1 -21.73 13 414.82 414.82 0 0 1 -46.36 20.67c-8.9 3.43-17.86 6.7-26.82 10-1 .38-.59 2 .45 1.66z"/><path d="m677.64 307.64 1.34-1.28a1 1 0 0 0 .26-.64.91.91 0 0 0 -1.55-.64l-1.28 1.33a.91.91 0 0 0 -.26.62.87.87 0 0 0 1.49.61z"/><path d="m621.56 283.73a192 192 0 0 1 35.92-26.73c1.25-.7.09-2.69-1.12-1.92-6.42 4.1-12.76 8.23-18.81 12.86a213.62 213.62 0 0 0 -17.18 14.63c-.79.75.4 1.93 1.19 1.19z"/><path d="m646.74 296.1.58-.58a.83.83 0 0 0 .22-.33 1 1 0 0 0 0-.78.83.83 0 0 0 -.22-.33l-.2-.16a1 1 0 0 0 -.52-.14h-.27a1 1 0 0 0 -.45.26l-.58.58a.72.72 0 0 0 -.21.33.75.75 0 0 0 -.09.39.81.81 0 0 0 .09.4.75.75 0 0 0 .21.32l.21.16a.94.94 0 0 0 .51.14h.27a.94.94 0 0 0 .45-.27z"/><path d="m646.54 302.09.87-.59a.8.8 0 0 0 .29-.26.73.73 0 0 0 .18-.35.78.78 0 0 0 0-.4.81.81 0 0 0 -.12-.38l-.16-.21a1 1 0 0 0 -.45-.26h-.28a1 1 0 0 0 -.51.14l-.87.58a.84.84 0 0 0 -.29.27.75.75 0 0 0 -.18.34.72.72 0 0 0 0 .41.85.85 0 0 0 .12.38l.16.21a1.13 1.13 0 0 0 .45.26h.27a1.15 1.15 0 0 0 .52-.14z"/><path d="m691.47 435.27a42.24 42.24 0 0 0 4.09 5.27c1.37 1.65 2.77 3.27 4.22 4.86q4.4 4.85 9.24 9.27a136.76 136.76 0 0 0 20.91 15.8c1.18.72 2.24-1.12 1.08-1.85a152.06 152.06 0 0 1 -20.7-15.55c-3.18-2.87-6.24-5.9-9.16-9-1.46-1.58-2.88-3.18-4.27-4.82s-2.6-3.44-4.09-5a.84.84 0 0 0 -1.32 1z"/><path d="m707.74 554.2a727.13 727.13 0 0 0 11.07 85.46c1.52 8 3.21 16 5 23.9.25 1.13 2 .65 1.72-.47a739.23 739.23 0 0 1 -14-84.8q-1.26-12-2.13-24.09c-.07-1.06-1.73-1.07-1.66 0z"/><path d="m734.66 679.8 2.63-1.73a1 1 0 0 0 .39-.52.87.87 0 0 0 -.08-.67.88.88 0 0 0 -1.19-.32l-2.62 1.76a.94.94 0 0 0 -.39.51.85.85 0 0 0 .09.66.86.86 0 0 0 1.17.31z"/><path d="m731.29 673.06a15.52 15.52 0 0 0 6.32-5.78.89.89 0 1 0 -1.53-.89 14.83 14.83 0 0 1 -2.47 3 13.74 13.74 0 0 1 -3.15 2.27.83.83 0 0 0 -.29 1.12.84.84 0 0 0 1.12.3z"/><path d="m472.81 360.8q10.72 28.8 23.65 56.71c.63 1.35 1.36 2.8 2.72 3.41s3.05.16 4.52-.34a317.11 317.11 0 0 0 53.87-24.05 4.36 4.36 0 0 0 1.85-1.59c.61-1.19 0-2.61-.57-3.81l-25-50.58a5.58 5.58 0 0 0 -2.45-2.95c-1.33-.56-2.83 0-4.17.49q-26.06 10.32-51.78 21.43"/><path d="m472 361q9.08 24.76 19.87 48.84 1.33 3 2.7 6c.76 1.67 1.41 3.6 2.71 5 2.76 2.91 7.09.66 10.19-.41q12-4.17 23.62-9.33t22.73-11.21a43.1 43.1 0 0 0 5.3-3 3.79 3.79 0 0 0 1.49-4.07c-.45-2-1.71-3.92-2.62-5.75l-3-6q-6-12.19-12.09-24.38-3.06-6.15-6.09-12.3c-.91-1.83-1.7-3.8-2.79-5.53a4.61 4.61 0 0 0 -3.89-2.43c-2 0-3.93 1.05-5.73 1.76l-6.16 2.46q-6.27 2.52-12.53 5.08-12.36 4.99-24.71 10.27l-6.1 2.62c-1.26.54-.17 2.39 1.08 1.85q23.11-10 46.5-19.35c1.94-.78 3.86-1.63 5.84-2.31a3.57 3.57 0 0 1 2.86-.13 4.4 4.4 0 0 1 1.52 1.93c1.93 3.69 3.71 7.48 5.56 11.22q5.64 11.42 11.24 22.85l5.64 11.42c1 1.93 1.94 3.84 2.85 5.78.37.79.86 1.82.38 2.65s-1.46 1.13-2.17 1.53q-10.35 5.79-21.12 10.8t-22 9.27a95 95 0 0 1 -11.08 3.87c-2.29.55-3.47-.6-4.41-2.52-.87-1.76-1.66-3.56-2.48-5.34q-10.31-22.56-19.25-45.71-1.14-2.94-2.25-5.88c-.37-1-1.94-.56-1.58.44z"/></g><path d="m268.34 318.84a66.49 66.49 0 0 1 84.09-21.72c1.83.92 2.94 1.88 2.69 4.09s-.85 4.56-1.29 6.82l-1.28 6.68c-.17.89-.68 2.16-.23 3a4.84 4.84 0 0 0 1.92 1.58c3 1.56 6.6.47 9.47-.84 3.94-1.8 7.66-4.28 11.41-6.44l12.2-7 6.21-3.57a20.33 20.33 0 0 0 4.14-2.94 7.3 7.3 0 0 0 2.33-4.3 8.34 8.34 0 0 0 -1.57-5.4c-2.47-4-5.15-7.89-7.72-11.82q-7.86-12-15.73-24.05a66.16 66.16 0 0 0 -3.68-5.52c-1-1.28-2.66-2.5-4.41-2s-2.44 2.43-3 4a38.39 38.39 0 0 0 -1.63 6.52 41.27 41.27 0 0 0 -.53 6.37l2.37-1c-7.94-7.29-19.21-9-29.58-9.63a108.72 108.72 0 0 0 -32 3 113.21 113.21 0 0 0 -29.62 12 104 104 0 0 0 -13.26 9.08c-3.82 3.07-8 6.87-8.89 11.95-.58 3.25.54 6.25 1.61 9.27q1.84 5.18 3.81 10.31a96.06 96.06 0 0 0 3.86 9.65c1.17 2.23 3.61 4 5.92 2.25 1.49-1.15-.6-3.2-2.07-2.07.25-.19.08 0-.13-.17s-.31-.25-.44-.39a4.38 4.38 0 0 1 -.84-1.24c-.64-1.29-1.11-2.69-1.65-4q-1.63-4.08-3.19-8.19c-1-2.75-2.06-5.5-3-8.26-.88-2.45-1.65-4.91-.92-7.51 1.3-4.58 5.59-7.87 9.17-10.68a104.32 104.32 0 0 1 12.23-8.3 106.41 106.41 0 0 1 56.18-14.08c10.55.31 22.77 1.58 30.88 9.06a1.41 1.41 0 0 0 2.37-1 38.14 38.14 0 0 1 2-11.93c.18-.55.39-1.74.89-2.12s1.41.52 1.78 1c1.3 1.64 2.35 3.54 3.49 5.3q7 10.77 14.08 21.54l7 10.67a29.37 29.37 0 0 1 3.18 5.22 3.84 3.84 0 0 1 -1 4.25 16.11 16.11 0 0 1 -3.86 2.72l-5.35 3.08-11.13 6.4c-4 2.28-7.87 4.67-11.89 6.83-2.58 1.37-6.73 3.22-9.18.71l.37 1.38 2.67-13.85c.37-2 .78-4-.23-5.91a8.52 8.52 0 0 0 -4.06-3.2 69.45 69.45 0 0 0 -24-6.49 68.22 68.22 0 0 0 -44.81 12 69.33 69.33 0 0 0 -17.71 17.95c-.66 1 .91 1.87 1.57.92z"/><path d="m382.26 348.8a66.49 66.49 0 0 1 -84.09 21.72c-1.84-.93-2.95-1.89-2.69-4.09s.85-4.57 1.29-6.82l1.28-6.69c.17-.89.68-2.15.23-3a4.83 4.83 0 0 0 -1.93-1.59c-3-1.56-6.59-.47-9.46.85-3.95 1.8-7.66 4.27-11.42 6.44l-12.19 7-6.21 3.58a20.68 20.68 0 0 0 -4.14 2.93 7.36 7.36 0 0 0 -2.32 4.3 8.34 8.34 0 0 0 1.57 5.4c2.47 4 5.14 7.89 7.72 11.82l15.72 24a66.1 66.1 0 0 0 3.69 5.51c1 1.29 2.66 2.5 4.41 2s2.43-2.44 3-4a39.61 39.61 0 0 0 1.63-6.52 43.93 43.93 0 0 0 .53-6.38l-2.37 1c7.93 7.29 19.21 9 29.57 9.64a108.46 108.46 0 0 0 32-3 112.78 112.78 0 0 0 29.6-11.9 104.41 104.41 0 0 0 13.32-9.1c3.81-3.08 8-6.88 8.89-11.95.57-3.25-.54-6.26-1.61-9.28q-1.85-5.18-3.82-10.3a91.54 91.54 0 0 0 -3.86-9.65c-1.16-2.24-3.6-4-5.91-2.25-1.49 1.15.59 3.2 2.06 2.06-.24.19-.07 0 .13.18s.31.24.45.38a4.53 4.53 0 0 1 .84 1.24c.64 1.29 1.11 2.69 1.64 4 1.1 2.72 2.16 5.45 3.2 8.19s2.06 5.49 3 8.25c.88 2.46 1.65 4.91.91 7.51-1.29 4.58-5.58 7.88-9.16 10.69a104.76 104.76 0 0 1 -68.42 22.38c-10.54-.32-22.77-1.59-30.88-9.06a1.41 1.41 0 0 0 -2.37 1 38.19 38.19 0 0 1 -2 11.94c-.18.55-.39 1.74-.89 2.12s-1.41-.52-1.78-1c-1.3-1.64-2.35-3.55-3.49-5.3q-7-10.77-14.08-21.55l-7-10.66a29.73 29.73 0 0 1 -3.18-5.22 3.86 3.86 0 0 1 1-4.26 17 17 0 0 1 3.82-2.74l5.35-3.08 11.13-6.4c4-2.27 7.87-4.66 11.89-6.82 2.57-1.38 6.72-3.23 9.17-.71l-.36-1.38-2.67 13.87c-.38 2-.79 4.06.23 5.91a8.31 8.31 0 0 0 4.06 3.2 69.4 69.4 0 0 0 24 6.5 68.23 68.23 0 0 0 44.81-12 69.52 69.52 0 0 0 17.71-18c.66-1-.91-1.86-1.57-.91z"/><g fill="#18c4ff"><path d="m489.71 369.91a7.52 7.52 0 0 0 .39 3.36 1 1 0 0 0 1.73.23c1.31-1.78 4.2-1.81 6.15-2.32a39.85 39.85 0 0 0 7-2.67c4.63-2.19 9.07-4.83 14.07-6.11a.93.93 0 0 0 -.5-1.8c-5.31 1.31-10 4.1-15 6.35a37.58 37.58 0 0 1 -7.71 2.65c-2.19.46-4.38 1-5.69 2.94l1.73.23a6.5 6.5 0 0 1 -.49-2.86c.07-1.14-1.62-1.09-1.73 0z"/><path d="m496.81 386.62q15.21-6.66 30.1-14c1.12-.56.13-2.24-1-1.68q-14.82 7.49-30 14.24c-1 .44-.13 1.91.87 1.48z"/><path d="m503.5 397.4a165.83 165.83 0 0 1 15.5-7.74c1.09-.47.15-2.09-.94-1.61a166.8 166.8 0 0 0 -15.43 7.85.87.87 0 0 0 .87 1.5z"/></g><g fill="#fff"><path d="m73.22 146.33a21.86 21.86 0 0 1 7-18.21c.93-.85-.46-2.25-1.39-1.39a23.63 23.63 0 0 0 -7.38 19.6c.11 1.09 1.84 1.11 1.74 0z"/><path d="m102.06 95.22c4.39-12.21 12-23.8 23.59-30.19 10.77-5.94 24.27-6.47 34.56.79a25.38 25.38 0 0 1 6.59 6.8 12.88 12.88 0 0 1 2.2 4.83c.25 1.62-.31 3.52-2.06 4l1.8 1.8a4.48 4.48 0 0 1 6.86-1.84c1.28 1.13 3.15-.7 1.89-1.89-3.64-3.41-10-1.7-11.57 3a1.48 1.48 0 0 0 1.8 1.8c3.5-.84 4.8-4.59 4.17-7.82s-2.89-6.5-5.09-9a31.41 31.41 0 0 0 -16.94-9.5c-14.34-2.91-28.91 4.45-38 15.3a64.69 64.69 0 0 0 -11.51 21.42c-.36 1.09 1.32 1.53 1.7.47z"/><path d="m188.4 89.87a1.17 1.17 0 0 0 0-2.34 1.17 1.17 0 0 0 0 2.34z"/><path d="m144.52 188.25c-.51-9.32.82-19.47 7.18-26.75 5.32-6.08 13.75-9.66 21.53-6.16a14.08 14.08 0 0 1 8.14 9.16c.36 1.43 2.79 1.18 2.65-.36-.64-7.13 3.46-14.92 11.17-15.72a10.87 10.87 0 0 1 5.15.65c1.66.66 3 2.19 5 1.88 1.67-.26 2.71-1.69 3.4-3.12a29.94 29.94 0 0 1 2.41-4.32 24 24 0 0 1 16.28-9.65 20.12 20.12 0 0 1 17.3 6.25c4.91 5.2 7.37 12.81 5.52 19.81a1.53 1.53 0 0 0 2.94.81c3.94-14.2-7.26-29.51-21.9-30.26a27 27 0 0 0 -19.8 7.69 24.75 24.75 0 0 0 -3.49 4.14c-1 1.48-1.6 3.13-2.49 4.66-.46.8-.7 1-1.52.5a16.74 16.74 0 0 0 -2.83-1.44 13.43 13.43 0 0 0 -5.62-.76c-9.51.73-15.28 9.83-14.24 18.88l2.65-.36c-2.28-8.54-11.59-13.44-20-12.13-9.56 1.48-16.64 9.59-19.52 18.42a48.12 48.12 0 0 0 -1.84 18.18c.08 1.23 2 1.25 1.94 0z"/><path d="m214.71 82.71c4.31-5.51 11.58-7.36 18.31-7.1 7.25.28 15.42 3.81 16.84 11.71.3 1.62 2.8.94 2.48-.68-1.72-8.71-10.61-12.6-18.66-13-7.5-.35-15.59 1.83-20.32 8-.59.76.74 1.8 1.35 1z"/><path d="m247.35 98.6a1.17 1.17 0 0 0 0-2.34 1.17 1.17 0 0 0 0 2.34z"/><path d="m271.94 114.16a14.07 14.07 0 0 1 14.95-2.5c1.27.58 2.36-1.33 1.09-1.87a16.15 16.15 0 0 0 -17.32 3.08c-.85.81.42 2.07 1.28 1.29z"/></g><g fill="none" stroke="#000" stroke-linecap="round" stroke-miterlimit="10" stroke-width="3.22"><path d="m169.31 271.37c-.46 1.26-.89 2.53-1.29 3.82"/><path d="m166 283.06c-4.24 21.68.8 45.16 14 62.9 4.55 6.11 10.14 11.66 17.08 14.8s15.38 3.56 22-.19 10.72-12.13 8.34-19.36c-1-3.17-3.41-6.08-6.64-6.89-4.79-1.21-9.72 2.74-11.16 7.47s-.19 9.84 1.57 14.46a66.15 66.15 0 0 0 19 26.74" stroke-dasharray="8.13 8.13"/><path d="m233.44 385.52c1.07.81 2.18 1.57 3.3 2.31"/><path d="m336.15 198.39q2-.36 4-.6"/><path d="m348.7 197.23c15.62-.16 31.3 4.28 45.36 11.31 15.35 7.69 29 18.32 41.83 29.76" stroke-dasharray="8.58 8.58"/><path d="m439.08 241.17 3 2.73"/><path d="m313.7 430.34c.81 1.07 1.65 2.12 2.51 3.15"/><path d="m321.53 439.34a94.23 94.23 0 0 0 49.09 26.15c13.55 2.54 29.77 1 37.73-10.29 3.81-5.39 5.07-12.14 6-18.69.75-5.16.71-11.67-3.91-14.1-6-3.13-12.51 4.61-12.22 11.34.52 12.21 12.55 20.76 24.24 24.3 8.28 2.52 17.31 3.51 25.53.81a25.69 25.69 0 0 0 13.85-10.77" stroke-dasharray="7.9 7.9"/><path d="m463.55 444.54a19.26 19.26 0 0 0 1-3.91"/></g></svg>